<?xml version="1.0" encoding="UTF-8" standalone="no"?>
<!DOCTYPE svg PUBLIC "-//W3C//DTD SVG 1.1//EN"
 "http://www.w3.org/Graphics/SVG/1.1/DTD/svg11.dtd">
<!-- Generated by graphviz version 11.0.0 (20240428.1522)
 -->
<!-- Title: dependency&#45;cruiser output Pages: 1 -->
<svg width="1093pt" height="614pt"
 viewBox="0.00 0.00 1092.75 614.00" xmlns="http://www.w3.org/2000/svg" xmlns:xlink="http://www.w3.org/1999/xlink">
<g id="graph0" class="graph" transform="scale(1 1) rotate(0) translate(4 610)">
<title>dependency&#45;cruiser output</title>
<polygon fill="white" stroke="none" points="-4,4 -4,-610 1088.75,-610 1088.75,4 -4,4"/>
<g id="clust1" class="cluster">
<title>cluster_src</title>
<path fill="#ffffff" stroke="black" stroke-width="2" d="M20,-8C20,-8 1064.75,-8 1064.75,-8 1070.75,-8 1076.75,-14 1076.75,-20 1076.75,-20 1076.75,-586 1076.75,-586 1076.75,-592 1070.75,-598 1064.75,-598 1064.75,-598 20,-598 20,-598 14,-598 8,-592 8,-586 8,-586 8,-20 8,-20 8,-14 14,-8 20,-8"/>
<text text-anchor="middle" x="542.38" y="-585.45" font-family="Helvetica,sans-Serif" font-weight="bold" font-size="9.00">src</text>
</g>
<g id="clust2" class="cluster">
<title>cluster_src/app</title>
<path fill="#ffffff" stroke="black" stroke-width="2" d="M28,-205C28,-205 141,-205 141,-205 147,-205 153,-211 153,-217 153,-217 153,-275 153,-275 153,-281 147,-287 141,-287 141,-287 28,-287 28,-287 22,-287 16,-281 16,-275 16,-275 16,-217 16,-217 16,-211 22,-205 28,-205"/>
<text text-anchor="middle" x="84.5" y="-274.45" font-family="Helvetica,sans-Serif" font-weight="bold" font-size="9.00">app</text>
</g>
<g id="clust3" class="cluster">
<title>cluster_src/entities</title>
<path fill="#ffffff" stroke="black" stroke-width="2" d="M251,-16C251,-16 820.5,-16 820.5,-16 826.5,-16 832.5,-22 832.5,-28 832.5,-28 832.5,-248 832.5,-248 832.5,-254 826.5,-260 820.5,-260 820.5,-260 251,-260 251,-260 245,-260 239,-254 239,-248 239,-248 239,-28 239,-28 239,-22 245,-16 251,-16"/>
<text text-anchor="middle" x="535.75" y="-247.45" font-family="Helvetica,sans-Serif" font-weight="bold" font-size="9.00">entities</text>
</g>
<g id="clust4" class="cluster">
<title>cluster_src/entities/pokemon</title>
<path fill="#ffffff" stroke="black" stroke-width="2" d="M259,-24C259,-24 812.5,-24 812.5,-24 818.5,-24 824.5,-30 824.5,-36 824.5,-36 824.5,-222 824.5,-222 824.5,-228 818.5,-234 812.5,-234 812.5,-234 259,-234 259,-234 253,-234 247,-228 247,-222 247,-222 247,-36 247,-36 247,-30 253,-24 259,-24"/>
<text text-anchor="middle" x="535.75" y="-221.45" font-family="Helvetica,sans-Serif" font-weight="bold" font-size="9.00">pokemon</text>
</g>
<g id="clust5" class="cluster">
<title>cluster_src/entities/pokemon/api</title>
<path fill="#ffffff" stroke="black" stroke-width="2" d="M448.12,-156C448.12,-156 545.38,-156 545.38,-156 551.38,-156 557.38,-162 557.38,-168 557.38,-168 557.38,-196 557.38,-196 557.38,-202 551.38,-208 545.38,-208 545.38,-208 448.12,-208 448.12,-208 442.12,-208 436.12,-202 436.12,-196 436.12,-196 436.12,-168 436.12,-168 436.12,-162 442.12,-156 448.12,-156"/>
<text text-anchor="middle" x="496.75" y="-195.45" font-family="Helvetica,sans-Serif" font-weight="bold" font-size="9.00">api</text>
</g>
<g id="clust6" class="cluster">
<title>cluster_src/entities/pokemon/lib</title>
<path fill="#ffffff" stroke="black" stroke-width="2" d="M599,-156C599,-156 687.25,-156 687.25,-156 693.25,-156 699.25,-162 699.25,-168 699.25,-168 699.25,-196 699.25,-196 699.25,-202 693.25,-208 687.25,-208 687.25,-208 599,-208 599,-208 593,-208 587,-202 587,-196 587,-196 587,-168 587,-168 587,-162 593,-156 599,-156"/>
<text text-anchor="middle" x="643.12" y="-195.45" font-family="Helvetica,sans-Serif" font-weight="bold" font-size="9.00">lib</text>
</g>
<g id="clust7" class="cluster">
<title>cluster_src/entities/pokemon/model</title>
<path fill="#ffffff" stroke="black" stroke-width="2" d="M758.5,-156C758.5,-156 804.5,-156 804.5,-156 810.5,-156 816.5,-162 816.5,-168 816.5,-168 816.5,-196 816.5,-196 816.5,-202 810.5,-208 804.5,-208 804.5,-208 758.5,-208 758.5,-208 752.5,-208 746.5,-202 746.5,-196 746.5,-196 746.5,-168 746.5,-168 746.5,-162 752.5,-156 758.5,-156"/>
<text text-anchor="middle" x="781.5" y="-195.45" font-family="Helvetica,sans-Serif" font-weight="bold" font-size="9.00">model</text>
</g>
<g id="clust8" class="cluster">
<title>cluster_src/entities/pokemon/ui</title>
<path fill="#ffffff" stroke="black" stroke-width="2" d="M329,-32C329,-32 718.5,-32 718.5,-32 724.5,-32 730.5,-38 730.5,-44 730.5,-44 730.5,-136 730.5,-136 730.5,-142 724.5,-148 718.5,-148 718.5,-148 329,-148 329,-148 323,-148 317,-142 317,-136 317,-136 317,-44 317,-44 317,-38 323,-32 329,-32"/>
<text text-anchor="middle" x="523.75" y="-135.45" font-family="Helvetica,sans-Serif" font-weight="bold" font-size="9.00">ui</text>
</g>
<g id="clust9" class="cluster">
<title>cluster_src/entities/pokemon/ui/PokemonCard</title>
<path fill="#ffffff" stroke="black" stroke-width="2" d="M337,-40C337,-40 710.5,-40 710.5,-40 716.5,-40 722.5,-46 722.5,-52 722.5,-52 722.5,-110 722.5,-110 722.5,-116 716.5,-122 710.5,-122 710.5,-122 337,-122 337,-122 331,-122 325,-116 325,-110 325,-110 325,-52 325,-52 325,-46 331,-40 337,-40"/>
<text text-anchor="middle" x="523.75" y="-109.45" font-family="Helvetica,sans-Serif" font-weight="bold" font-size="9.00">PokemonCard</text>
</g>
<g id="clust10" class="cluster">
<title>cluster_src/pages</title>
<path fill="#ffffff" stroke="black" stroke-width="2" d="M173,-160C173,-160 219,-160 219,-160 225,-160 231,-166 231,-172 231,-172 231,-260 231,-260 231,-266 225,-272 219,-272 219,-272 173,-272 173,-272 167,-272 161,-266 161,-260 161,-260 161,-172 161,-172 161,-166 167,-160 173,-160"/>
<text text-anchor="middle" x="196" y="-259.45" font-family="Helvetica,sans-Serif" font-weight="bold" font-size="9.00">pages</text>
</g>
<g id="clust11" class="cluster">
<title>cluster_src/shared</title>
<path fill="#ffffff" stroke="black" stroke-width="2" d="M750.5,-268C750.5,-268 1056.75,-268 1056.75,-268 1062.75,-268 1068.75,-274 1068.75,-280 1068.75,-280 1068.75,-560 1068.75,-560 1068.75,-566 1062.75,-572 1056.75,-572 1056.75,-572 750.5,-572 750.5,-572 744.5,-572 738.5,-566 738.5,-560 738.5,-560 738.5,-280 738.5,-280 738.5,-274 744.5,-268 750.5,-268"/>
<text text-anchor="middle" x="903.62" y="-559.45" font-family="Helvetica,sans-Serif" font-weight="bold" font-size="9.00">shared</text>
</g>
<g id="clust12" class="cluster">
<title>cluster_src/shared/api</title>
<path fill="#ffffff" stroke="black" stroke-width="2" d="M758.5,-276C758.5,-276 929.25,-276 929.25,-276 935.25,-276 941.25,-282 941.25,-288 941.25,-288 941.25,-380 941.25,-380 941.25,-386 935.25,-392 929.25,-392 929.25,-392 758.5,-392 758.5,-392 752.5,-392 746.5,-386 746.5,-380 746.5,-380 746.5,-288 746.5,-288 746.5,-282 752.5,-276 758.5,-276"/>
<text text-anchor="middle" x="843.88" y="-379.45" font-family="Helvetica,sans-Serif" font-weight="bold" font-size="9.00">api</text>
</g>
<g id="clust13" class="cluster">
<title>cluster_src/shared/api/pokemon</title>
<path fill="#ffffff" stroke="black" stroke-width="2" d="M852.5,-284C852.5,-284 921.25,-284 921.25,-284 927.25,-284 933.25,-290 933.25,-296 933.25,-296 933.25,-354 933.25,-354 933.25,-360 927.25,-366 921.25,-366 921.25,-366 852.5,-366 852.5,-366 846.5,-366 840.5,-360 840.5,-354 840.5,-354 840.5,-296 840.5,-296 840.5,-290 846.5,-284 852.5,-284"/>
<text text-anchor="middle" x="886.88" y="-353.45" font-family="Helvetica,sans-Serif" font-weight="bold" font-size="9.00">pokemon</text>
</g>
<g id="clust14" class="cluster">
<title>cluster_src/shared/ui</title>
<path fill="#ffffff" stroke="black" stroke-width="2" d="M758.5,-400C758.5,-400 1048.75,-400 1048.75,-400 1054.75,-400 1060.75,-406 1060.75,-412 1060.75,-412 1060.75,-534 1060.75,-534 1060.75,-540 1054.75,-546 1048.75,-546 1048.75,-546 758.5,-546 758.5,-546 752.5,-546 746.5,-540 746.5,-534 746.5,-534 746.5,-412 746.5,-412 746.5,-406 752.5,-400 758.5,-400"/>
<text text-anchor="middle" x="903.62" y="-533.45" font-family="Helvetica,sans-Serif" font-weight="bold" font-size="9.00">ui</text>
</g>
<g id="clust15" class="cluster">
<title>cluster_src/shared/ui/Header</title>
<path fill="#ffffff" stroke="black" stroke-width="2" d="M860.75,-408C860.75,-408 1040.75,-408 1040.75,-408 1046.75,-408 1052.75,-414 1052.75,-420 1052.75,-420 1052.75,-448 1052.75,-448 1052.75,-454 1046.75,-460 1040.75,-460 1040.75,-460 860.75,-460 860.75,-460 854.75,-460 848.75,-454 848.75,-448 848.75,-448 848.75,-420 848.75,-420 848.75,-414 854.75,-408 860.75,-408"/>
<text text-anchor="middle" x="950.75" y="-447.45" font-family="Helvetica,sans-Serif" font-weight="bold" font-size="9.00">Header</text>
</g>
<g id="clust16" class="cluster">
<title>cluster_src/shared/ui/Layout</title>
<path fill="#ffffff" stroke="black" stroke-width="2" d="M862.25,-468C862.25,-468 1039.25,-468 1039.25,-468 1045.25,-468 1051.25,-474 1051.25,-480 1051.25,-480 1051.25,-508 1051.25,-508 1051.25,-514 1045.25,-520 1039.25,-520 1039.25,-520 862.25,-520 862.25,-520 856.25,-520 850.25,-514 850.25,-508 850.25,-508 850.25,-480 850.25,-480 850.25,-474 856.25,-468 862.25,-468"/>
<text text-anchor="middle" x="950.75" y="-507.45" font-family="Helvetica,sans-Serif" font-weight="bold" font-size="9.00">Layout</text>
</g>
<!-- src/app/App.tsx -->
<g id="node1" class="node">
<title>src/app/App.tsx</title>
<g id="a_node1"><a xlink:href="src/app/App.tsx" xlink:title="App.tsx">
<path fill="#bbfeff" stroke="black" d="M139.08,-230.88C139.08,-230.88 96.92,-230.88 96.92,-230.88 93.96,-230.88 91,-227.92 91,-224.96 91,-224.96 91,-219.04 91,-219.04 91,-216.08 93.96,-213.12 96.92,-213.12 96.92,-213.12 139.08,-213.12 139.08,-213.12 142.04,-213.12 145,-216.08 145,-219.04 145,-219.04 145,-224.96 145,-224.96 145,-227.92 142.04,-230.88 139.08,-230.88"/>
<text text-anchor="start" x="103" y="-218.32" font-family="Helvetica,sans-Serif" font-size="9.00">App.tsx</text>
</a>
</g>
</g>
<!-- src/pages/404.tsx -->
<g id="node2" class="node">
<title>src/pages/404.tsx</title>
<g id="a_node2"><a xlink:href="src/pages/404.tsx" xlink:title="404.tsx">
<path fill="#bbfeff" stroke="black" d="M217.08,-185.88C217.08,-185.88 174.92,-185.88 174.92,-185.88 171.96,-185.88 169,-182.92 169,-179.96 169,-179.96 169,-174.04 169,-174.04 169,-171.08 171.96,-168.12 174.92,-168.12 174.92,-168.12 217.08,-168.12 217.08,-168.12 220.04,-168.12 223,-171.08 223,-174.04 223,-174.04 223,-179.96 223,-179.96 223,-182.92 220.04,-185.88 217.08,-185.88"/>
<text text-anchor="start" x="181.38" y="-173.32" font-family="Helvetica,sans-Serif" font-size="9.00">404.tsx</text>
</a>
</g>
</g>
<!-- src/app/App.tsx&#45;&gt;src/pages/404.tsx -->
<g id="edge1" class="edge">
<title>src/app/App.tsx&#45;&gt;src/pages/404.tsx</title>
<path fill="none" stroke="#000000" stroke-width="2" stroke-opacity="0.200000" d="M130.7,-212.66C138.89,-206.36 150.26,-198.12 161,-192 162.12,-191.36 163.27,-190.73 164.45,-190.11"/>
<polygon fill="#000000" fill-opacity="0.200000" stroke="#000000" stroke-width="2" stroke-opacity="0.200000" points="165.2,-192.08 169.65,-187.55 163.34,-188.32 165.2,-192.08"/>
</g>
<!-- src/pages/about.tsx -->
<g id="node3" class="node">
<title>src/pages/about.tsx</title>
<g id="a_node3"><a xlink:href="src/pages/about.tsx" xlink:title="about.tsx">
<path fill="#bbfeff" stroke="black" d="M217.08,-215.88C217.08,-215.88 174.92,-215.88 174.92,-215.88 171.96,-215.88 169,-212.92 169,-209.96 169,-209.96 169,-204.04 169,-204.04 169,-201.08 171.96,-198.12 174.92,-198.12 174.92,-198.12 217.08,-198.12 217.08,-198.12 220.04,-198.12 223,-201.08 223,-204.04 223,-204.04 223,-209.96 223,-209.96 223,-212.92 220.04,-215.88 217.08,-215.88"/>
<text text-anchor="start" x="177.62" y="-203.32" font-family="Helvetica,sans-Serif" font-size="9.00">about.tsx</text>
</a>
</g>
</g>
<!-- src/app/App.tsx&#45;&gt;src/pages/about.tsx -->
<g id="edge2" class="edge">
<title>src/app/App.tsx&#45;&gt;src/pages/about.tsx</title>
<path fill="none" stroke="#000000" stroke-width="2" stroke-opacity="0.200000" d="M145.15,-216.84C149.88,-215.91 154.87,-214.92 159.8,-213.95"/>
<polygon fill="#000000" fill-opacity="0.200000" stroke="#000000" stroke-width="2" stroke-opacity="0.200000" points="160.09,-216.03 165.57,-212.81 159.28,-211.91 160.09,-216.03"/>
</g>
<!-- src/pages/home.tsx -->
<g id="node4" class="node">
<title>src/pages/home.tsx</title>
<g id="a_node4"><a xlink:href="src/pages/home.tsx" xlink:title="home.tsx">
<path fill="#bbfeff" stroke="black" d="M217.08,-245.88C217.08,-245.88 174.92,-245.88 174.92,-245.88 171.96,-245.88 169,-242.92 169,-239.96 169,-239.96 169,-234.04 169,-234.04 169,-231.08 171.96,-228.12 174.92,-228.12 174.92,-228.12 217.08,-228.12 217.08,-228.12 220.04,-228.12 223,-231.08 223,-234.04 223,-234.04 223,-239.96 223,-239.96 223,-242.92 220.04,-245.88 217.08,-245.88"/>
<text text-anchor="start" x="177.62" y="-233.32" font-family="Helvetica,sans-Serif" font-size="9.00">home.tsx</text>
</a>
</g>
</g>
<!-- src/app/App.tsx&#45;&gt;src/pages/home.tsx -->
<g id="edge3" class="edge">
<title>src/app/App.tsx&#45;&gt;src/pages/home.tsx</title>
<path fill="none" stroke="#000000" stroke-width="2" stroke-opacity="0.200000" d="M145.15,-227.16C149.88,-228.09 154.87,-229.08 159.8,-230.05"/>
<polygon fill="#000000" fill-opacity="0.200000" stroke="#000000" stroke-width="2" stroke-opacity="0.200000" points="159.28,-232.09 165.57,-231.19 160.09,-227.97 159.28,-232.09"/>
</g>
<!-- src/shared/ui/index.ts -->
<g id="node5" class="node">
<title>src/shared/ui/index.ts</title>
<g id="a_node5"><a xlink:href="src/shared/ui/index.ts" xlink:title="index.ts">
<path fill="#ddfeff" stroke="black" d="M802.58,-433.88C802.58,-433.88 760.42,-433.88 760.42,-433.88 757.46,-433.88 754.5,-430.92 754.5,-427.96 754.5,-427.96 754.5,-422.04 754.5,-422.04 754.5,-419.08 757.46,-416.12 760.42,-416.12 760.42,-416.12 802.58,-416.12 802.58,-416.12 805.54,-416.12 808.5,-419.08 808.5,-422.04 808.5,-422.04 808.5,-427.96 808.5,-427.96 808.5,-430.92 805.54,-433.88 802.58,-433.88"/>
<text text-anchor="start" x="765.75" y="-421.32" font-family="Helvetica,sans-Serif" font-size="9.00">index.ts</text>
</a>
</g>
</g>
<!-- src/app/App.tsx&#45;&gt;src/shared/ui/index.ts -->
<g id="edge4" class="edge">
<title>src/app/App.tsx&#45;&gt;src/shared/ui/index.ts</title>
<path fill="none" stroke="#000000" stroke-width="2" stroke-opacity="0.200000" d="M145.34,-230.43C148.23,-232.23 150.89,-234.39 153,-237 163.87,-250.4 150.99,-260.94 161,-275 197.08,-325.66 218.8,-347 281,-347 281,-347 281,-347 497.75,-347 594.51,-347 703.4,-389.97 753.11,-412.12"/>
<polygon fill="#000000" fill-opacity="0.200000" stroke="#000000" stroke-width="2" stroke-opacity="0.200000" points="752.04,-413.94 758.37,-414.5 753.77,-410.12 752.04,-413.94"/>
</g>
<!-- src/entities/pokemon/index.ts -->
<g id="node11" class="node">
<title>src/entities/pokemon/index.ts</title>
<g id="a_node11"><a xlink:href="src/entities/pokemon/index.ts" xlink:title="index.ts">
<path fill="#ddfeff" stroke="black" d="M303.08,-151.88C303.08,-151.88 260.92,-151.88 260.92,-151.88 257.96,-151.88 255,-148.92 255,-145.96 255,-145.96 255,-140.04 255,-140.04 255,-137.08 257.96,-134.12 260.92,-134.12 260.92,-134.12 303.08,-134.12 303.08,-134.12 306.04,-134.12 309,-137.08 309,-140.04 309,-140.04 309,-145.96 309,-145.96 309,-148.92 306.04,-151.88 303.08,-151.88"/>
<text text-anchor="start" x="266.25" y="-139.32" font-family="Helvetica,sans-Serif" font-size="9.00">index.ts</text>
</a>
</g>
</g>
<!-- src/pages/home.tsx&#45;&gt;src/entities/pokemon/index.ts -->
<g id="edge16" class="edge">
<title>src/pages/home.tsx&#45;&gt;src/entities/pokemon/index.ts</title>
<path fill="none" stroke="#000000" stroke-width="2" stroke-opacity="0.200000" d="M222.52,-227.78C225.55,-226.11 228.46,-224.19 231,-222 250.98,-204.8 265.73,-177.62 273.85,-160.05"/>
<polygon fill="#000000" fill-opacity="0.200000" stroke="#000000" stroke-width="2" stroke-opacity="0.200000" points="275.55,-161.39 276.07,-155.05 271.71,-159.69 275.55,-161.39"/>
</g>
<!-- src/shared/ui/Header/Header.tsx -->
<g id="node20" class="node">
<title>src/shared/ui/Header/Header.tsx</title>
<g id="a_node20"><a xlink:href="src/shared/ui/Header/Header.tsx" xlink:title="Header.tsx">
<path fill="#bbfeff" stroke="black" d="M911.08,-433.88C911.08,-433.88 862.67,-433.88 862.67,-433.88 859.71,-433.88 856.75,-430.92 856.75,-427.96 856.75,-427.96 856.75,-422.04 856.75,-422.04 856.75,-419.08 859.71,-416.12 862.67,-416.12 862.67,-416.12 911.08,-416.12 911.08,-416.12 914.04,-416.12 917,-419.08 917,-422.04 917,-422.04 917,-427.96 917,-427.96 917,-430.92 914.04,-433.88 911.08,-433.88"/>
<text text-anchor="start" x="864.75" y="-421.32" font-family="Helvetica,sans-Serif" font-size="9.00">Header.tsx</text>
</a>
</g>
</g>
<!-- src/shared/ui/index.ts&#45;&gt;src/shared/ui/Header/Header.tsx -->
<g id="edge21" class="edge">
<title>src/shared/ui/index.ts&#45;&gt;src/shared/ui/Header/Header.tsx</title>
<path fill="none" stroke="#000000" stroke-width="2" stroke-opacity="0.200000" d="M808.85,-425C821.18,-425 836.06,-425 849.45,-425"/>
<polygon fill="#000000" fill-opacity="0.200000" stroke="#000000" stroke-width="2" stroke-opacity="0.200000" points="855.29,-427.1 849.29,-425 855.29,-422.9 855.29,-427.1"/>
</g>
<!-- src/shared/ui/Layout/Layout.tsx -->
<g id="node22" class="node">
<title>src/shared/ui/Layout/Layout.tsx</title>
<g id="a_node22"><a xlink:href="src/shared/ui/Layout/Layout.tsx" xlink:title="Layout.tsx">
<path fill="#bbfeff" stroke="black" d="M909.58,-493.88C909.58,-493.88 864.17,-493.88 864.17,-493.88 861.21,-493.88 858.25,-490.92 858.25,-487.96 858.25,-487.96 858.25,-482.04 858.25,-482.04 858.25,-479.08 861.21,-476.12 864.17,-476.12 864.17,-476.12 909.58,-476.12 909.58,-476.12 912.54,-476.12 915.5,-479.08 915.5,-482.04 915.5,-482.04 915.5,-487.96 915.5,-487.96 915.5,-490.92 912.54,-493.88 909.58,-493.88"/>
<text text-anchor="start" x="866.25" y="-481.32" font-family="Helvetica,sans-Serif" font-size="9.00">Layout.tsx</text>
</a>
</g>
</g>
<!-- src/shared/ui/index.ts&#45;&gt;src/shared/ui/Layout/Layout.tsx -->
<g id="edge22" class="edge">
<title>src/shared/ui/index.ts&#45;&gt;src/shared/ui/Layout/Layout.tsx</title>
<path fill="none" stroke="#000000" stroke-width="2" stroke-opacity="0.200000" d="M795.56,-434.25C807.12,-442.27 824.58,-453.98 840.5,-463 846.44,-466.37 852.97,-469.73 859.19,-472.77"/>
<polygon fill="#000000" fill-opacity="0.200000" stroke="#000000" stroke-width="2" stroke-opacity="0.200000" points="863.45,-477.15 858.95,-472.65 865.27,-473.37 863.45,-477.15"/>
</g>
<!-- src/app/entry.css -->
<g id="node6" class="node">
<title>src/app/entry.css</title>
<g id="a_node6"><a xlink:href="src/app/entry.css" xlink:title="entry.css">
<path fill="#ffffcc" stroke="black" d="M139.08,-260.88C139.08,-260.88 96.92,-260.88 96.92,-260.88 93.96,-260.88 91,-257.92 91,-254.96 91,-254.96 91,-249.04 91,-249.04 91,-246.08 93.96,-243.12 96.92,-243.12 96.92,-243.12 139.08,-243.12 139.08,-243.12 142.04,-243.12 145,-246.08 145,-249.04 145,-249.04 145,-254.96 145,-254.96 145,-257.92 142.04,-260.88 139.08,-260.88"/>
<text text-anchor="start" x="100" y="-248.32" font-family="Helvetica,sans-Serif" font-size="9.00">entry.css</text>
</a>
</g>
</g>
<!-- src/app/entry.tsx -->
<g id="node7" class="node">
<title>src/app/entry.tsx</title>
<g id="a_node7"><a xlink:href="src/app/entry.tsx" xlink:title="entry.tsx">
<path fill="#bbfeff" stroke="black" d="M72.08,-245.88C72.08,-245.88 29.92,-245.88 29.92,-245.88 26.96,-245.88 24,-242.92 24,-239.96 24,-239.96 24,-234.04 24,-234.04 24,-231.08 26.96,-228.12 29.92,-228.12 29.92,-228.12 72.08,-228.12 72.08,-228.12 75.04,-228.12 78,-231.08 78,-234.04 78,-234.04 78,-239.96 78,-239.96 78,-242.92 75.04,-245.88 72.08,-245.88"/>
<text text-anchor="start" x="34.12" y="-233.32" font-family="Helvetica,sans-Serif" font-size="9.00">entry.tsx</text>
</a>
</g>
</g>
<!-- src/app/entry.tsx&#45;&gt;src/app/App.tsx -->
<g id="edge5" class="edge">
<title>src/app/entry.tsx&#45;&gt;src/app/App.tsx</title>
<path fill="none" stroke="#000000" stroke-width="2" stroke-opacity="0.200000" d="M78.44,-230.9C79.71,-230.6 81,-230.31 82.29,-230.01"/>
<polygon fill="#000000" fill-opacity="0.200000" stroke="#000000" stroke-width="2" stroke-opacity="0.200000" points="82.47,-232.12 87.85,-228.73 81.53,-228.03 82.47,-232.12"/>
</g>
<!-- src/app/entry.tsx&#45;&gt;src/app/entry.css -->
<g id="edge6" class="edge">
<title>src/app/entry.tsx&#45;&gt;src/app/entry.css</title>
<path fill="none" stroke="#000000" stroke-width="2" stroke-opacity="0.200000" d="M78.44,-243.1C79.71,-243.4 81,-243.69 82.29,-243.99"/>
<polygon fill="#000000" fill-opacity="0.200000" stroke="#000000" stroke-width="2" stroke-opacity="0.200000" points="81.53,-245.97 87.85,-245.27 82.47,-241.88 81.53,-245.97"/>
</g>
<!-- src/entities/pokemon/api/queryPokemonById.ts -->
<g id="node8" class="node">
<title>src/entities/pokemon/api/queryPokemonById.ts</title>
<g id="a_node8"><a xlink:href="src/entities/pokemon/api/queryPokemonById.ts" xlink:title="queryPokemonById.ts">
<path fill="#ddfeff" stroke="black" d="M543.46,-181.88C543.46,-181.88 450.04,-181.88 450.04,-181.88 447.08,-181.88 444.12,-178.92 444.12,-175.96 444.12,-175.96 444.12,-170.04 444.12,-170.04 444.12,-167.08 447.08,-164.12 450.04,-164.12 450.04,-164.12 543.46,-164.12 543.46,-164.12 546.42,-164.12 549.38,-167.08 549.38,-170.04 549.38,-170.04 549.38,-175.96 549.38,-175.96 549.38,-178.92 546.42,-181.88 543.46,-181.88"/>
<text text-anchor="start" x="452.12" y="-169.32" font-family="Helvetica,sans-Serif" font-size="9.00">queryPokemonById.ts</text>
</a>
</g>
</g>
<!-- src/entities/pokemon/lib/mapPokemonDto.ts -->
<g id="node9" class="node">
<title>src/entities/pokemon/lib/mapPokemonDto.ts</title>
<g id="a_node9"><a xlink:href="src/entities/pokemon/lib/mapPokemonDto.ts" xlink:title="mapPokemonDto.ts">
<path fill="#ddfeff" stroke="black" d="M685.33,-181.88C685.33,-181.88 600.92,-181.88 600.92,-181.88 597.96,-181.88 595,-178.92 595,-175.96 595,-175.96 595,-170.04 595,-170.04 595,-167.08 597.96,-164.12 600.92,-164.12 600.92,-164.12 685.33,-164.12 685.33,-164.12 688.29,-164.12 691.25,-167.08 691.25,-170.04 691.25,-170.04 691.25,-175.96 691.25,-175.96 691.25,-178.92 688.29,-181.88 685.33,-181.88"/>
<text text-anchor="start" x="603" y="-169.32" font-family="Helvetica,sans-Serif" font-size="9.00">mapPokemonDto.ts</text>
</a>
</g>
</g>
<!-- src/entities/pokemon/api/queryPokemonById.ts&#45;&gt;src/entities/pokemon/lib/mapPokemonDto.ts -->
<g id="edge7" class="edge">
<title>src/entities/pokemon/api/queryPokemonById.ts&#45;&gt;src/entities/pokemon/lib/mapPokemonDto.ts</title>
<path fill="none" stroke="#000000" stroke-width="2" stroke-opacity="0.200000" d="M549.87,-173C561.59,-173 574.07,-173 585.94,-173"/>
<polygon fill="#000000" fill-opacity="0.200000" stroke="#000000" stroke-width="2" stroke-opacity="0.200000" points="585.85,-175.1 591.85,-173 585.85,-170.9 585.85,-175.1"/>
</g>
<!-- src/shared/api/index.ts -->
<g id="node10" class="node">
<title>src/shared/api/index.ts</title>
<g id="a_node10"><a xlink:href="src/shared/api/index.ts" xlink:title="index.ts">
<path fill="#ddfeff" stroke="black" d="M802.58,-305.88C802.58,-305.88 760.42,-305.88 760.42,-305.88 757.46,-305.88 754.5,-302.92 754.5,-299.96 754.5,-299.96 754.5,-294.04 754.5,-294.04 754.5,-291.08 757.46,-288.12 760.42,-288.12 760.42,-288.12 802.58,-288.12 802.58,-288.12 805.54,-288.12 808.5,-291.08 808.5,-294.04 808.5,-294.04 808.5,-299.96 808.5,-299.96 808.5,-302.92 805.54,-305.88 802.58,-305.88"/>
<text text-anchor="start" x="765.75" y="-293.32" font-family="Helvetica,sans-Serif" font-size="9.00">index.ts</text>
</a>
</g>
</g>
<!-- src/entities/pokemon/api/queryPokemonById.ts&#45;&gt;src/shared/api/index.ts -->
<g id="edge8" class="edge">
<title>src/entities/pokemon/api/queryPokemonById.ts&#45;&gt;src/shared/api/index.ts</title>
<path fill="none" stroke="#000000" stroke-width="2" stroke-opacity="0.200000" d="M514.89,-182.32C529.76,-190.28 551.95,-201.86 571.75,-211 633.05,-239.3 706.36,-268.45 747.77,-284.5"/>
<polygon fill="#000000" fill-opacity="0.200000" stroke="#000000" stroke-width="2" stroke-opacity="0.200000" points="746.93,-286.42 753.29,-286.63 748.44,-282.51 746.93,-286.42"/>
</g>
<!-- src/entities/pokemon/lib/mapPokemonDto.ts&#45;&gt;src/shared/api/index.ts -->
<g id="edge11" class="edge">
<title>src/entities/pokemon/lib/mapPokemonDto.ts&#45;&gt;src/shared/api/index.ts</title>
<path fill="none" stroke="#000000" stroke-opacity="0.200000" d="M660.85,-182.26C679.14,-192.86 708.72,-211.42 730.5,-232 746.51,-247.13 761.42,-267.71 770.73,-281.62"/>
<polygon fill="none" stroke="#000000" stroke-opacity="0.200000" points="768.94,-282.74 773.99,-286.6 772.46,-280.43 768.94,-282.74"/>
</g>
<!-- src/entities/pokemon/model/types.ts -->
<g id="node13" class="node">
<title>src/entities/pokemon/model/types.ts</title>
<g id="a_node13"><a xlink:href="src/entities/pokemon/model/types.ts" xlink:title="types.ts">
<path fill="#ddfeff" stroke="black" d="M802.58,-181.88C802.58,-181.88 760.42,-181.88 760.42,-181.88 757.46,-181.88 754.5,-178.92 754.5,-175.96 754.5,-175.96 754.5,-170.04 754.5,-170.04 754.5,-167.08 757.46,-164.12 760.42,-164.12 760.42,-164.12 802.58,-164.12 802.58,-164.12 805.54,-164.12 808.5,-167.08 808.5,-170.04 808.5,-170.04 808.5,-175.96 808.5,-175.96 808.5,-178.92 805.54,-181.88 802.58,-181.88"/>
<text text-anchor="start" x="766.12" y="-169.32" font-family="Helvetica,sans-Serif" font-size="9.00">types.ts</text>
</a>
</g>
</g>
<!-- src/entities/pokemon/lib/mapPokemonDto.ts&#45;&gt;src/entities/pokemon/model/types.ts -->
<g id="edge10" class="edge">
<title>src/entities/pokemon/lib/mapPokemonDto.ts&#45;&gt;src/entities/pokemon/model/types.ts</title>
<path fill="none" stroke="#000000" stroke-opacity="0.200000" d="M691.44,-173C709.72,-173 730.21,-173 746.93,-173"/>
<polygon fill="none" stroke="#000000" stroke-opacity="0.200000" points="746.81,-175.1 752.81,-173 746.81,-170.9 746.81,-175.1"/>
</g>
<!-- src/shared/api/pokemon/pokemonApi.ts -->
<g id="node17" class="node">
<title>src/shared/api/pokemon/pokemonApi.ts</title>
<g id="a_node17"><a xlink:href="src/shared/api/pokemon/pokemonApi.ts" xlink:title="pokemonApi.ts">
<path fill="#ddfeff" stroke="black" d="M919.33,-309.88C919.33,-309.88 854.42,-309.88 854.42,-309.88 851.46,-309.88 848.5,-306.92 848.5,-303.96 848.5,-303.96 848.5,-298.04 848.5,-298.04 848.5,-295.08 851.46,-292.12 854.42,-292.12 854.42,-292.12 919.33,-292.12 919.33,-292.12 922.29,-292.12 925.25,-295.08 925.25,-298.04 925.25,-298.04 925.25,-303.96 925.25,-303.96 925.25,-306.92 922.29,-309.88 919.33,-309.88"/>
<text text-anchor="start" x="856.5" y="-297.32" font-family="Helvetica,sans-Serif" font-size="9.00">pokemonApi.ts</text>
</a>
</g>
</g>
<!-- src/shared/api/index.ts&#45;&gt;src/shared/api/pokemon/pokemonApi.ts -->
<g id="edge17" class="edge">
<title>src/shared/api/index.ts&#45;&gt;src/shared/api/pokemon/pokemonApi.ts</title>
<path fill="none" stroke="#000000" stroke-width="2" stroke-opacity="0.200000" d="M808.85,-298.02C818.67,-298.4 830.1,-298.84 841.11,-299.27"/>
<polygon fill="#000000" fill-opacity="0.200000" stroke="#000000" stroke-width="2" stroke-opacity="0.200000" points="847.18,-301.6 841.26,-299.27 847.34,-297.41 847.18,-301.6"/>
</g>
<!-- src/shared/api/pokemon/types.ts -->
<g id="node18" class="node">
<title>src/shared/api/pokemon/types.ts</title>
<g id="a_node18"><a xlink:href="src/shared/api/pokemon/types.ts" xlink:title="types.ts">
<path fill="#ddfeff" stroke="black" d="M907.96,-339.88C907.96,-339.88 865.79,-339.88 865.79,-339.88 862.83,-339.88 859.88,-336.92 859.88,-333.96 859.88,-333.96 859.88,-328.04 859.88,-328.04 859.88,-325.08 862.83,-322.12 865.79,-322.12 865.79,-322.12 907.96,-322.12 907.96,-322.12 910.92,-322.12 913.88,-325.08 913.88,-328.04 913.88,-328.04 913.88,-333.96 913.88,-333.96 913.88,-336.92 910.92,-339.88 907.96,-339.88"/>
<text text-anchor="start" x="871.5" y="-327.32" font-family="Helvetica,sans-Serif" font-size="9.00">types.ts</text>
</a>
</g>
</g>
<!-- src/shared/api/index.ts&#45;&gt;src/shared/api/pokemon/types.ts -->
<g id="edge18" class="edge">
<title>src/shared/api/index.ts&#45;&gt;src/shared/api/pokemon/types.ts</title>
<path fill="none" stroke="#000000" stroke-opacity="0.200000" d="M808.85,-305.67C822.22,-310.06 838.59,-315.45 852.79,-320.12"/>
<polygon fill="none" stroke="#000000" stroke-opacity="0.200000" points="851.78,-322 858.13,-321.88 853.09,-318.01 851.78,-322"/>
</g>
<!-- src/entities/pokemon/ui/PokemonCard/PokemonCard.tsx -->
<g id="node12" class="node">
<title>src/entities/pokemon/ui/PokemonCard/PokemonCard.tsx</title>
<g id="a_node12"><a xlink:href="src/entities/pokemon/ui/PokemonCard/PokemonCard.tsx" xlink:title="PokemonCard.tsx">
<path fill="#bbfeff" stroke="black" d="M415.83,-95.88C415.83,-95.88 338.92,-95.88 338.92,-95.88 335.96,-95.88 333,-92.92 333,-89.96 333,-89.96 333,-84.04 333,-84.04 333,-81.08 335.96,-78.12 338.92,-78.12 338.92,-78.12 415.83,-78.12 415.83,-78.12 418.79,-78.12 421.75,-81.08 421.75,-84.04 421.75,-84.04 421.75,-89.96 421.75,-89.96 421.75,-92.92 418.79,-95.88 415.83,-95.88"/>
<text text-anchor="start" x="341" y="-83.33" font-family="Helvetica,sans-Serif" font-size="9.00">PokemonCard.tsx</text>
</a>
</g>
</g>
<!-- src/entities/pokemon/index.ts&#45;&gt;src/entities/pokemon/ui/PokemonCard/PokemonCard.tsx -->
<g id="edge9" class="edge">
<title>src/entities/pokemon/index.ts&#45;&gt;src/entities/pokemon/ui/PokemonCard/PokemonCard.tsx</title>
<path fill="none" stroke="#000000" stroke-width="2" stroke-opacity="0.200000" d="M298.42,-133.75C313.83,-124.51 337.65,-110.23 354.9,-99.88"/>
<polygon fill="#000000" fill-opacity="0.200000" stroke="#000000" stroke-width="2" stroke-opacity="0.200000" points="361.16,-98.58 354.93,-99.86 359,-94.97 361.16,-98.58"/>
</g>
<!-- src/entities/pokemon/ui/PokemonCard/PokemonCard.tsx&#45;&gt;src/entities/pokemon/api/queryPokemonById.ts -->
<g id="edge12" class="edge">
<title>src/entities/pokemon/ui/PokemonCard/PokemonCard.tsx&#45;&gt;src/entities/pokemon/api/queryPokemonById.ts</title>
<path fill="none" stroke="#000000" stroke-width="2" stroke-opacity="0.200000" d="M390.94,-96.2C411.32,-111.14 451.76,-140.77 476.02,-158.54"/>
<polygon fill="#000000" fill-opacity="0.200000" stroke="#000000" stroke-width="2" stroke-opacity="0.200000" points="474.76,-160.22 480.84,-162.07 477.24,-156.83 474.76,-160.22"/>
</g>
<!-- src/entities/pokemon/ui/PokemonCard/PokemonCard.module.css -->
<g id="node14" class="node">
<title>src/entities/pokemon/ui/PokemonCard/PokemonCard.module.css</title>
<g id="a_node14"><a xlink:href="src/entities/pokemon/ui/PokemonCard/PokemonCard.module.css" xlink:title="PokemonCard.module.css">
<path fill="#ffffcc" stroke="black" d="M552.83,-65.88C552.83,-65.88 440.67,-65.88 440.67,-65.88 437.71,-65.88 434.75,-62.92 434.75,-59.96 434.75,-59.96 434.75,-54.04 434.75,-54.04 434.75,-51.08 437.71,-48.12 440.67,-48.12 440.67,-48.12 552.83,-48.12 552.83,-48.12 555.79,-48.12 558.75,-51.08 558.75,-54.04 558.75,-54.04 558.75,-59.96 558.75,-59.96 558.75,-62.92 555.79,-65.88 552.83,-65.88"/>
<text text-anchor="start" x="442.75" y="-53.33" font-family="Helvetica,sans-Serif" font-size="9.00">PokemonCard.module.css</text>
</a>
</g>
</g>
<!-- src/entities/pokemon/ui/PokemonCard/PokemonCard.tsx&#45;&gt;src/entities/pokemon/ui/PokemonCard/PokemonCard.module.css -->
<g id="edge13" class="edge">
<title>src/entities/pokemon/ui/PokemonCard/PokemonCard.tsx&#45;&gt;src/entities/pokemon/ui/PokemonCard/PokemonCard.module.css</title>
<path fill="none" stroke="#000000" stroke-width="2" stroke-opacity="0.200000" d="M412.93,-77.69C420.14,-75.79 427.69,-73.81 434.75,-72 439.31,-70.83 444.06,-69.63 448.81,-68.45"/>
<polygon fill="#000000" fill-opacity="0.200000" stroke="#000000" stroke-width="2" stroke-opacity="0.200000" points="449.07,-70.55 454.39,-67.06 448.06,-66.47 449.07,-70.55"/>
</g>
<!-- src/entities/pokemon/ui/PokemonCard/PokemonCardStub.tsx -->
<g id="node15" class="node">
<title>src/entities/pokemon/ui/PokemonCard/PokemonCardStub.tsx</title>
<g id="a_node15"><a xlink:href="src/entities/pokemon/ui/PokemonCard/PokemonCardStub.tsx" xlink:title="PokemonCardStub.tsx">
<path fill="#bbfeff" stroke="black" d="M544.58,-95.88C544.58,-95.88 448.92,-95.88 448.92,-95.88 445.96,-95.88 443,-92.92 443,-89.96 443,-89.96 443,-84.04 443,-84.04 443,-81.08 445.96,-78.12 448.92,-78.12 448.92,-78.12 544.58,-78.12 544.58,-78.12 547.54,-78.12 550.5,-81.08 550.5,-84.04 550.5,-84.04 550.5,-89.96 550.5,-89.96 550.5,-92.92 547.54,-95.88 544.58,-95.88"/>
<text text-anchor="start" x="451" y="-83.33" font-family="Helvetica,sans-Serif" font-size="9.00">PokemonCardStub.tsx</text>
</a>
</g>
</g>
<!-- src/entities/pokemon/ui/PokemonCard/PokemonCard.tsx&#45;&gt;src/entities/pokemon/ui/PokemonCard/PokemonCardStub.tsx -->
<g id="edge14" class="edge">
<title>src/entities/pokemon/ui/PokemonCard/PokemonCard.tsx&#45;&gt;src/entities/pokemon/ui/PokemonCard/PokemonCardStub.tsx</title>
<path fill="none" stroke="#000000" stroke-width="2" stroke-opacity="0.200000" d="M422.08,-87C426,-87 430.01,-87 434.05,-87"/>
<polygon fill="#000000" fill-opacity="0.200000" stroke="#000000" stroke-width="2" stroke-opacity="0.200000" points="433.85,-89.1 439.85,-87 433.85,-84.9 433.85,-89.1"/>
</g>
<!-- src/entities/pokemon/ui/PokemonCard/PokemonCardStub.module.css -->
<g id="node16" class="node">
<title>src/entities/pokemon/ui/PokemonCard/PokemonCardStub.module.css</title>
<g id="a_node16"><a xlink:href="src/entities/pokemon/ui/PokemonCard/PokemonCardStub.module.css" xlink:title="PokemonCardStub.module.css">
<path fill="#ffffcc" stroke="black" d="M708.58,-95.88C708.58,-95.88 577.67,-95.88 577.67,-95.88 574.71,-95.88 571.75,-92.92 571.75,-89.96 571.75,-89.96 571.75,-84.04 571.75,-84.04 571.75,-81.08 574.71,-78.12 577.67,-78.12 577.67,-78.12 708.58,-78.12 708.58,-78.12 711.54,-78.12 714.5,-81.08 714.5,-84.04 714.5,-84.04 714.5,-89.96 714.5,-89.96 714.5,-92.92 711.54,-95.88 708.58,-95.88"/>
<text text-anchor="start" x="579.75" y="-83.33" font-family="Helvetica,sans-Serif" font-size="9.00">PokemonCardStub.module.css</text>
</a>
</g>
</g>
<!-- src/entities/pokemon/ui/PokemonCard/PokemonCardStub.tsx&#45;&gt;src/entities/pokemon/ui/PokemonCard/PokemonCardStub.module.css -->
<g id="edge15" class="edge">
<title>src/entities/pokemon/ui/PokemonCard/PokemonCardStub.tsx&#45;&gt;src/entities/pokemon/ui/PokemonCard/PokemonCardStub.module.css</title>
<path fill="none" stroke="#000000" stroke-width="2" stroke-opacity="0.200000" d="M550.69,-87C554.6,-87 558.59,-87 562.61,-87"/>
<polygon fill="#000000" fill-opacity="0.200000" stroke="#000000" stroke-width="2" stroke-opacity="0.200000" points="562.41,-89.1 568.41,-87 562.41,-84.9 562.41,-89.1"/>
</g>
<!-- src/shared/ui/Header/Header.module.css -->
<g id="node19" class="node">
<title>src/shared/ui/Header/Header.module.css</title>
<g id="a_node19"><a xlink:href="src/shared/ui/Header/Header.module.css" xlink:title="Header.module.css">
<path fill="#ffffcc" stroke="black" d="M1038.83,-433.88C1038.83,-433.88 955.17,-433.88 955.17,-433.88 952.21,-433.88 949.25,-430.92 949.25,-427.96 949.25,-427.96 949.25,-422.04 949.25,-422.04 949.25,-419.08 952.21,-416.12 955.17,-416.12 955.17,-416.12 1038.83,-416.12 1038.83,-416.12 1041.79,-416.12 1044.75,-419.08 1044.75,-422.04 1044.75,-422.04 1044.75,-427.96 1044.75,-427.96 1044.75,-430.92 1041.79,-433.88 1038.83,-433.88"/>
<text text-anchor="start" x="957.25" y="-421.32" font-family="Helvetica,sans-Serif" font-size="9.00">Header.module.css</text>
</a>
</g>
</g>
<!-- src/shared/ui/Header/Header.tsx&#45;&gt;src/shared/ui/Header/Header.module.css -->
<g id="edge19" class="edge">
<title>src/shared/ui/Header/Header.tsx&#45;&gt;src/shared/ui/Header/Header.module.css</title>
<path fill="none" stroke="#000000" stroke-width="2" stroke-opacity="0.200000" d="M917.42,-425C924.51,-425 932.31,-425 940.16,-425"/>
<polygon fill="#000000" fill-opacity="0.200000" stroke="#000000" stroke-width="2" stroke-opacity="0.200000" points="939.98,-427.1 945.98,-425 939.98,-422.9 939.98,-427.1"/>
</g>
<!-- src/shared/ui/Layout/Layout.module.css -->
<g id="node21" class="node">
<title>src/shared/ui/Layout/Layout.module.css</title>
<g id="a_node21"><a xlink:href="src/shared/ui/Layout/Layout.module.css" xlink:title="Layout.module.css">
<path fill="#ffffcc" stroke="black" d="M1037.33,-493.88C1037.33,-493.88 956.67,-493.88 956.67,-493.88 953.71,-493.88 950.75,-490.92 950.75,-487.96 950.75,-487.96 950.75,-482.04 950.75,-482.04 950.75,-479.08 953.71,-476.12 956.67,-476.12 956.67,-476.12 1037.33,-476.12 1037.33,-476.12 1040.29,-476.12 1043.25,-479.08 1043.25,-482.04 1043.25,-482.04 1043.25,-487.96 1043.25,-487.96 1043.25,-490.92 1040.29,-493.88 1037.33,-493.88"/>
<text text-anchor="start" x="958.75" y="-481.32" font-family="Helvetica,sans-Serif" font-size="9.00">Layout.module.css</text>
</a>
</g>
</g>
<!-- src/shared/ui/Layout/Layout.tsx&#45;&gt;src/shared/ui/Layout/Layout.module.css -->
<g id="edge20" class="edge">
<title>src/shared/ui/Layout/Layout.tsx&#45;&gt;src/shared/ui/Layout/Layout.module.css</title>
<path fill="none" stroke="#000000" stroke-width="2" stroke-opacity="0.200000" d="M915.72,-485C923.7,-485 932.68,-485 941.67,-485"/>
<polygon fill="#000000" fill-opacity="0.200000" stroke="#000000" stroke-width="2" stroke-opacity="0.200000" points="941.61,-487.1 947.61,-485 941.61,-482.9 941.61,-487.1"/>
</g>
</g>
</svg>
