<?xml version="1.0" encoding="UTF-8" standalone="no"?>
<!DOCTYPE svg PUBLIC "-//W3C//DTD SVG 1.1//EN"
 "http://www.w3.org/Graphics/SVG/1.1/DTD/svg11.dtd">
<!-- Generated by graphviz version 12.0.0 (20240704.0754)
 -->
<!-- Title: dependency&#45;cruiser output Pages: 1 -->
<svg width="1184pt" height="534pt"
 viewBox="0.00 0.00 1184.00 534.00" xmlns="http://www.w3.org/2000/svg" xmlns:xlink="http://www.w3.org/1999/xlink">
<g id="graph0" class="graph" transform="scale(1 1) rotate(0) translate(4 530)">
<title>dependency&#45;cruiser output</title>
<polygon fill="white" stroke="none" points="-4,4 -4,-530 1180,-530 1180,4 -4,4"/>
<g id="clust1" class="cluster">
<title>cluster_src</title>
<path fill="#ffffff" stroke="black" stroke-width="2" d="M20,-8C20,-8 1156,-8 1156,-8 1162,-8 1168,-14 1168,-20 1168,-20 1168,-506 1168,-506 1168,-512 1162,-518 1156,-518 1156,-518 20,-518 20,-518 14,-518 8,-512 8,-506 8,-506 8,-20 8,-20 8,-14 14,-8 20,-8"/>
<text text-anchor="middle" x="588" y="-505.45" font-family="Helvetica,sans-Serif" font-weight="bold" font-size="9.00">src</text>
</g>
<g id="clust2" class="cluster">
<title>cluster_src/app</title>
<path fill="#ffffff" stroke="black" stroke-width="2" d="M28,-183C28,-183 141,-183 141,-183 147,-183 153,-189 153,-195 153,-195 153,-253 153,-253 153,-259 147,-265 141,-265 141,-265 28,-265 28,-265 22,-265 16,-259 16,-253 16,-253 16,-195 16,-195 16,-189 22,-183 28,-183"/>
<text text-anchor="middle" x="84.5" y="-252.45" font-family="Helvetica,sans-Serif" font-weight="bold" font-size="9.00">app</text>
</g>
<g id="clust3" class="cluster">
<title>cluster_src/features</title>
<path fill="#ffffff" stroke="black" stroke-width="2" d="M251,-16C251,-16 380.75,-16 380.75,-16 386.75,-16 392.75,-22 392.75,-28 392.75,-28 392.75,-192 392.75,-192 392.75,-198 386.75,-204 380.75,-204 380.75,-204 251,-204 251,-204 245,-204 239,-198 239,-192 239,-192 239,-28 239,-28 239,-22 245,-16 251,-16"/>
<text text-anchor="middle" x="315.88" y="-191.45" font-family="Helvetica,sans-Serif" font-weight="bold" font-size="9.00">features</text>
</g>
<g id="clust4" class="cluster">
<title>cluster_src/features/session</title>
<path fill="#ffffff" stroke="black" stroke-width="2" d="M259,-24C259,-24 372.75,-24 372.75,-24 378.75,-24 384.75,-30 384.75,-36 384.75,-36 384.75,-166 384.75,-166 384.75,-172 378.75,-178 372.75,-178 372.75,-178 259,-178 259,-178 253,-178 247,-172 247,-166 247,-166 247,-36 247,-36 247,-30 253,-24 259,-24"/>
<text text-anchor="middle" x="315.88" y="-165.45" font-family="Helvetica,sans-Serif" font-weight="bold" font-size="9.00">session</text>
</g>
<g id="clust5" class="cluster">
<title>cluster_src/features/session/login</title>
<path fill="#ffffff" stroke="black" stroke-width="2" d="M267,-32C267,-32 364.75,-32 364.75,-32 370.75,-32 376.75,-38 376.75,-44 376.75,-44 376.75,-140 376.75,-140 376.75,-146 370.75,-152 364.75,-152 364.75,-152 267,-152 267,-152 261,-152 255,-146 255,-140 255,-140 255,-44 255,-44 255,-38 261,-32 267,-32"/>
<text text-anchor="middle" x="315.88" y="-139.45" font-family="Helvetica,sans-Serif" font-weight="bold" font-size="9.00">login</text>
</g>
<g id="clust6" class="cluster">
<title>cluster_src/features/session/login/ui</title>
<path fill="#ffffff" stroke="black" stroke-width="2" d="M275,-40C275,-40 356.75,-40 356.75,-40 362.75,-40 368.75,-46 368.75,-52 368.75,-52 368.75,-114 368.75,-114 368.75,-120 362.75,-126 356.75,-126 356.75,-126 275,-126 275,-126 269,-126 263,-120 263,-114 263,-114 263,-52 263,-52 263,-46 269,-40 275,-40"/>
<text text-anchor="middle" x="315.88" y="-113.45" font-family="Helvetica,sans-Serif" font-weight="bold" font-size="9.00">ui</text>
</g>
<g id="clust7" class="cluster">
<title>cluster_src/features/session/login/ui/LoginForm</title>
<path fill="#ffffff" stroke="black" stroke-width="2" d="M283,-48C283,-48 348.75,-48 348.75,-48 354.75,-48 360.75,-54 360.75,-60 360.75,-60 360.75,-88 360.75,-88 360.75,-94 354.75,-100 348.75,-100 348.75,-100 283,-100 283,-100 277,-100 271,-94 271,-88 271,-88 271,-60 271,-60 271,-54 277,-48 283,-48"/>
<text text-anchor="middle" x="315.88" y="-87.45" font-family="Helvetica,sans-Serif" font-weight="bold" font-size="9.00">LoginForm</text>
</g>
<g id="clust8" class="cluster">
<title>cluster_src/pages</title>
<path fill="#ffffff" stroke="black" stroke-width="2" d="M173,-123C173,-123 219,-123 219,-123 225,-123 231,-129 231,-135 231,-135 231,-223 231,-223 231,-229 225,-235 219,-235 219,-235 173,-235 173,-235 167,-235 161,-229 161,-223 161,-223 161,-135 161,-135 161,-129 167,-123 173,-123"/>
<text text-anchor="middle" x="196" y="-222.45" font-family="Helvetica,sans-Serif" font-weight="bold" font-size="9.00">pages</text>
</g>
<g id="clust9" class="cluster">
<title>cluster_src/shared</title>
<path fill="#ffffff" stroke="black" stroke-width="2" d="M412.75,-18C412.75,-18 1148,-18 1148,-18 1154,-18 1160,-24 1160,-30 1160,-30 1160,-480 1160,-480 1160,-486 1154,-492 1148,-492 1148,-492 412.75,-492 412.75,-492 406.75,-492 400.75,-486 400.75,-480 400.75,-480 400.75,-30 400.75,-30 400.75,-24 406.75,-18 412.75,-18"/>
<text text-anchor="middle" x="780.38" y="-479.45" font-family="Helvetica,sans-Serif" font-weight="bold" font-size="9.00">shared</text>
</g>
<g id="clust10" class="cluster">
<title>cluster_src/shared/lib</title>
<path fill="#ffffff" stroke="black" stroke-width="2" d="M712.62,-250C712.62,-250 1140,-250 1140,-250 1146,-250 1152,-256 1152,-262 1152,-262 1152,-454 1152,-454 1152,-460 1146,-466 1140,-466 1140,-466 712.62,-466 712.62,-466 706.62,-466 700.62,-460 700.62,-454 700.62,-454 700.62,-262 700.62,-262 700.62,-256 706.62,-250 712.62,-250"/>
<text text-anchor="middle" x="926.31" y="-453.45" font-family="Helvetica,sans-Serif" font-weight="bold" font-size="9.00">lib</text>
</g>
<g id="clust11" class="cluster">
<title>cluster_src/shared/lib/modalManager</title>
<path fill="#ffffff" stroke="black" stroke-width="2" d="M720.62,-258C720.62,-258 1132,-258 1132,-258 1138,-258 1144,-264 1144,-270 1144,-270 1144,-428 1144,-428 1144,-434 1138,-440 1132,-440 1132,-440 720.62,-440 720.62,-440 714.62,-440 708.62,-434 708.62,-428 708.62,-428 708.62,-270 708.62,-270 708.62,-264 714.62,-258 720.62,-258"/>
<text text-anchor="middle" x="926.31" y="-427.45" font-family="Helvetica,sans-Serif" font-weight="bold" font-size="9.00">modalManager</text>
</g>
<g id="clust12" class="cluster">
<title>cluster_src/shared/ui</title>
<path fill="#ffffff" stroke="black" stroke-width="2" d="M420.75,-26C420.75,-26 792.75,-26 792.75,-26 798.75,-26 804.75,-32 804.75,-38 804.75,-38 804.75,-230 804.75,-230 804.75,-236 798.75,-242 792.75,-242 792.75,-242 420.75,-242 420.75,-242 414.75,-242 408.75,-236 408.75,-230 408.75,-230 408.75,-38 408.75,-38 408.75,-32 414.75,-26 420.75,-26"/>
<text text-anchor="middle" x="606.75" y="-229.45" font-family="Helvetica,sans-Serif" font-weight="bold" font-size="9.00">ui</text>
</g>
<g id="clust13" class="cluster">
<title>cluster_src/shared/ui/AlertModal</title>
<path fill="#ffffff" stroke="black" stroke-width="2" d="M497.5,-104C497.5,-104 563.25,-104 563.25,-104 569.25,-104 575.25,-110 575.25,-116 575.25,-116 575.25,-144 575.25,-144 575.25,-150 569.25,-156 563.25,-156 563.25,-156 497.5,-156 497.5,-156 491.5,-156 485.5,-150 485.5,-144 485.5,-144 485.5,-116 485.5,-116 485.5,-110 491.5,-104 497.5,-104"/>
<text text-anchor="middle" x="530.38" y="-143.45" font-family="Helvetica,sans-Serif" font-weight="bold" font-size="9.00">AlertModal</text>
</g>
<g id="clust14" class="cluster">
<title>cluster_src/shared/ui/ConfirmModal</title>
<path fill="#ffffff" stroke="black" stroke-width="2" d="M490.75,-164C490.75,-164 570,-164 570,-164 576,-164 582,-170 582,-176 582,-176 582,-204 582,-204 582,-210 576,-216 570,-216 570,-216 490.75,-216 490.75,-216 484.75,-216 478.75,-210 478.75,-204 478.75,-204 478.75,-176 478.75,-176 478.75,-170 484.75,-164 490.75,-164"/>
<text text-anchor="middle" x="530.38" y="-203.45" font-family="Helvetica,sans-Serif" font-weight="bold" font-size="9.00">ConfirmModal</text>
</g>
<g id="clust15" class="cluster">
<title>cluster_src/shared/ui/Layout</title>
<path fill="#ffffff" stroke="black" stroke-width="2" d="M505.75,-34C505.75,-34 678.5,-34 678.5,-34 684.5,-34 690.5,-40 690.5,-46 690.5,-46 690.5,-74 690.5,-74 690.5,-80 684.5,-86 678.5,-86 678.5,-86 505.75,-86 505.75,-86 499.75,-86 493.75,-80 493.75,-74 493.75,-74 493.75,-46 493.75,-46 493.75,-40 499.75,-34 505.75,-34"/>
<text text-anchor="middle" x="592.12" y="-73.45" font-family="Helvetica,sans-Serif" font-weight="bold" font-size="9.00">Layout</text>
</g>
<g id="clust16" class="cluster">
<title>cluster_src/shared/ui/Modal</title>
<path fill="#ffffff" stroke="black" stroke-width="2" d="M612.75,-121C612.75,-121 784.75,-121 784.75,-121 790.75,-121 796.75,-127 796.75,-133 796.75,-133 796.75,-161 796.75,-161 796.75,-167 790.75,-173 784.75,-173 784.75,-173 612.75,-173 612.75,-173 606.75,-173 600.75,-167 600.75,-161 600.75,-161 600.75,-133 600.75,-133 600.75,-127 606.75,-121 612.75,-121"/>
<text text-anchor="middle" x="698.75" y="-160.45" font-family="Helvetica,sans-Serif" font-weight="bold" font-size="9.00">Modal</text>
</g>
<!-- src/app/App.tsx -->
<g id="node1" class="node">
<title>src/app/App.tsx</title>
<g id="a_node1"><a xlink:href="src/app/App.tsx" xlink:title="App.tsx">
<path fill="#bbfeff" stroke="black" d="M139.08,-208.88C139.08,-208.88 96.92,-208.88 96.92,-208.88 93.96,-208.88 91,-205.92 91,-202.96 91,-202.96 91,-197.04 91,-197.04 91,-194.08 93.96,-191.12 96.92,-191.12 96.92,-191.12 139.08,-191.12 139.08,-191.12 142.04,-191.12 145,-194.08 145,-197.04 145,-197.04 145,-202.96 145,-202.96 145,-205.92 142.04,-208.88 139.08,-208.88"/>
<text text-anchor="start" x="103" y="-196.32" font-family="Helvetica,sans-Serif" font-size="9.00">App.tsx</text>
</a>
</g>
</g>
<!-- src/pages/404.tsx -->
<g id="node2" class="node">
<title>src/pages/404.tsx</title>
<g id="a_node2"><a xlink:href="src/pages/404.tsx" xlink:title="404.tsx">
<path fill="#bbfeff" stroke="black" d="M217.08,-208.88C217.08,-208.88 174.92,-208.88 174.92,-208.88 171.96,-208.88 169,-205.92 169,-202.96 169,-202.96 169,-197.04 169,-197.04 169,-194.08 171.96,-191.12 174.92,-191.12 174.92,-191.12 217.08,-191.12 217.08,-191.12 220.04,-191.12 223,-194.08 223,-197.04 223,-197.04 223,-202.96 223,-202.96 223,-205.92 220.04,-208.88 217.08,-208.88"/>
<text text-anchor="start" x="181.38" y="-196.32" font-family="Helvetica,sans-Serif" font-size="9.00">404.tsx</text>
</a>
</g>
</g>
<!-- src/app/App.tsx&#45;&gt;src/pages/404.tsx -->
<g id="edge1" class="edge">
<title>src/app/App.tsx&#45;&gt;src/pages/404.tsx</title>
<path fill="none" stroke="#000000" stroke-width="2" stroke-opacity="0.200000" d="M145.15,-200C149.88,-200 154.87,-200 159.8,-200"/>
<polygon fill="#000000" fill-opacity="0.200000" stroke="#000000" stroke-width="2" stroke-opacity="0.200000" points="159.51,-202.1 165.51,-200 159.51,-197.9 159.51,-202.1"/>
</g>
<!-- src/pages/about.tsx -->
<g id="node3" class="node">
<title>src/pages/about.tsx</title>
<g id="a_node3"><a xlink:href="src/pages/about.tsx" xlink:title="about.tsx">
<path fill="#bbfeff" stroke="black" d="M217.08,-148.88C217.08,-148.88 174.92,-148.88 174.92,-148.88 171.96,-148.88 169,-145.92 169,-142.96 169,-142.96 169,-137.04 169,-137.04 169,-134.08 171.96,-131.12 174.92,-131.12 174.92,-131.12 217.08,-131.12 217.08,-131.12 220.04,-131.12 223,-134.08 223,-137.04 223,-137.04 223,-142.96 223,-142.96 223,-145.92 220.04,-148.88 217.08,-148.88"/>
<text text-anchor="start" x="177.62" y="-136.32" font-family="Helvetica,sans-Serif" font-size="9.00">about.tsx</text>
</a>
</g>
</g>
<!-- src/app/App.tsx&#45;&gt;src/pages/about.tsx -->
<g id="edge2" class="edge">
<title>src/app/App.tsx&#45;&gt;src/pages/about.tsx</title>
<path fill="none" stroke="#000000" stroke-width="2" stroke-opacity="0.200000" d="M125.84,-190.67C133.49,-180.76 146.71,-165.15 161,-155 161.64,-154.54 162.3,-154.09 162.98,-153.66"/>
<polygon fill="#000000" fill-opacity="0.200000" stroke="#000000" stroke-width="2" stroke-opacity="0.200000" points="163.76,-155.63 167.93,-150.83 161.68,-151.98 163.76,-155.63"/>
</g>
<!-- src/pages/home.tsx -->
<g id="node4" class="node">
<title>src/pages/home.tsx</title>
<g id="a_node4"><a xlink:href="src/pages/home.tsx" xlink:title="home.tsx">
<path fill="#bbfeff" stroke="black" d="M217.08,-178.88C217.08,-178.88 174.92,-178.88 174.92,-178.88 171.96,-178.88 169,-175.92 169,-172.96 169,-172.96 169,-167.04 169,-167.04 169,-164.08 171.96,-161.12 174.92,-161.12 174.92,-161.12 217.08,-161.12 217.08,-161.12 220.04,-161.12 223,-164.08 223,-167.04 223,-167.04 223,-172.96 223,-172.96 223,-175.92 220.04,-178.88 217.08,-178.88"/>
<text text-anchor="start" x="177.62" y="-166.32" font-family="Helvetica,sans-Serif" font-size="9.00">home.tsx</text>
</a>
</g>
</g>
<!-- src/app/App.tsx&#45;&gt;src/pages/home.tsx -->
<g id="edge3" class="edge">
<title>src/app/App.tsx&#45;&gt;src/pages/home.tsx</title>
<path fill="none" stroke="#000000" stroke-width="2" stroke-opacity="0.200000" d="M142.63,-190.67C149.21,-188.08 156.46,-185.21 163.41,-182.47"/>
<polygon fill="#000000" fill-opacity="0.200000" stroke="#000000" stroke-width="2" stroke-opacity="0.200000" points="163.76,-184.59 168.57,-180.43 162.22,-180.68 163.76,-184.59"/>
</g>
<!-- src/shared/lib/modalManager/index.tsx -->
<g id="node5" class="node">
<title>src/shared/lib/modalManager/index.tsx</title>
<g id="a_node5"><a xlink:href="src/shared/lib/modalManager/index.tsx" xlink:title="index.tsx">
<path fill="#bbfeff" stroke="black" d="M764.71,-283.88C764.71,-283.88 722.54,-283.88 722.54,-283.88 719.58,-283.88 716.62,-280.92 716.62,-277.96 716.62,-277.96 716.62,-272.04 716.62,-272.04 716.62,-269.08 719.58,-266.12 722.54,-266.12 722.54,-266.12 764.71,-266.12 764.71,-266.12 767.67,-266.12 770.62,-269.08 770.62,-272.04 770.62,-272.04 770.62,-277.96 770.62,-277.96 770.62,-280.92 767.67,-283.88 764.71,-283.88"/>
<text text-anchor="start" x="725.62" y="-271.32" font-family="Helvetica,sans-Serif" font-size="9.00">index.tsx</text>
</a>
</g>
</g>
<!-- src/app/App.tsx&#45;&gt;src/shared/lib/modalManager/index.tsx -->
<g id="edge4" class="edge">
<title>src/app/App.tsx&#45;&gt;src/shared/lib/modalManager/index.tsx</title>
<path fill="none" stroke="#000000" stroke-width="2" stroke-opacity="0.200000" d="M145.22,-208.52C148.14,-210.31 150.83,-212.44 153,-215 162.21,-225.85 150.25,-236.68 161,-246 212.99,-291.06 246.07,-263 314.88,-263 314.88,-263 314.88,-263 531.38,-263 593.36,-263 665.41,-268.21 707.33,-271.77"/>
<polygon fill="#000000" fill-opacity="0.200000" stroke="#000000" stroke-width="2" stroke-opacity="0.200000" points="707.13,-273.86 713.29,-272.28 707.49,-269.67 707.13,-273.86"/>
</g>
<!-- src/shared/ui/index.ts -->
<g id="node6" class="node">
<title>src/shared/ui/index.ts</title>
<g id="a_node6"><a xlink:href="src/shared/ui/index.ts" xlink:title="index.ts">
<path fill="#ddfeff" stroke="black" d="M464.83,-129.88C464.83,-129.88 422.67,-129.88 422.67,-129.88 419.71,-129.88 416.75,-126.92 416.75,-123.96 416.75,-123.96 416.75,-118.04 416.75,-118.04 416.75,-115.08 419.71,-112.12 422.67,-112.12 422.67,-112.12 464.83,-112.12 464.83,-112.12 467.79,-112.12 470.75,-115.08 470.75,-118.04 470.75,-118.04 470.75,-123.96 470.75,-123.96 470.75,-126.92 467.79,-129.88 464.83,-129.88"/>
<text text-anchor="start" x="428" y="-117.33" font-family="Helvetica,sans-Serif" font-size="9.00">index.ts</text>
</a>
</g>
</g>
<!-- src/app/App.tsx&#45;&gt;src/shared/ui/index.ts -->
<g id="edge5" class="edge">
<title>src/app/App.tsx&#45;&gt;src/shared/ui/index.ts</title>
<path fill="none" stroke="#000000" stroke-width="2" stroke-opacity="0.200000" d="M145.37,-208.9C148.18,-210.61 150.81,-212.63 153,-215 160.34,-222.96 152.18,-231.73 161,-238 186.36,-256.03 200.85,-245.67 231,-238 309.28,-218.08 389.45,-162.06 424.49,-135.42"/>
<polygon fill="#000000" fill-opacity="0.200000" stroke="#000000" stroke-width="2" stroke-opacity="0.200000" points="425.4,-137.37 428.87,-132.05 422.83,-134.05 425.4,-137.37"/>
</g>
<!-- src/pages/home.tsx&#45;&gt;src/shared/ui/index.ts -->
<g id="edge11" class="edge">
<title>src/pages/home.tsx&#45;&gt;src/shared/ui/index.ts</title>
<path fill="none" stroke="#000000" stroke-width="2" stroke-opacity="0.200000" d="M223.3,-164.76C267.71,-155.9 357.6,-137.98 407.45,-128.04"/>
<polygon fill="#000000" fill-opacity="0.200000" stroke="#000000" stroke-width="2" stroke-opacity="0.200000" points="407.83,-130.1 413.3,-126.87 407,-125.99 407.83,-130.1"/>
</g>
<!-- src/features/session/login/ui/LoginForm/LoginForm.tsx -->
<g id="node9" class="node">
<title>src/features/session/login/ui/LoginForm/LoginForm.tsx</title>
<g id="a_node9"><a xlink:href="src/features/session/login/ui/LoginForm/LoginForm.tsx" xlink:title="LoginForm.tsx">
<path fill="#bbfeff" stroke="black" d="M346.83,-73.88C346.83,-73.88 284.92,-73.88 284.92,-73.88 281.96,-73.88 279,-70.92 279,-67.96 279,-67.96 279,-62.04 279,-62.04 279,-59.08 281.96,-56.12 284.92,-56.12 284.92,-56.12 346.83,-56.12 346.83,-56.12 349.79,-56.12 352.75,-59.08 352.75,-62.04 352.75,-62.04 352.75,-67.96 352.75,-67.96 352.75,-70.92 349.79,-73.88 346.83,-73.88"/>
<text text-anchor="start" x="287" y="-61.33" font-family="Helvetica,sans-Serif" font-size="9.00">LoginForm.tsx</text>
</a>
</g>
</g>
<!-- src/pages/home.tsx&#45;&gt;src/features/session/login/ui/LoginForm/LoginForm.tsx -->
<g id="edge10" class="edge">
<title>src/pages/home.tsx&#45;&gt;src/features/session/login/ui/LoginForm/LoginForm.tsx</title>
<path fill="none" stroke="#000000" stroke-width="2" stroke-opacity="0.200000" d="M221.44,-160.67C224.77,-158.99 228.06,-157.09 231,-155 260.66,-133.91 287.99,-101.03 302.96,-81.39"/>
<polygon fill="#000000" fill-opacity="0.200000" stroke="#000000" stroke-width="2" stroke-opacity="0.200000" points="304.51,-82.82 306.43,-76.75 301.15,-80.3 304.51,-82.82"/>
</g>
<!-- src/shared/lib/modalManager/context.tsx -->
<g id="node10" class="node">
<title>src/shared/lib/modalManager/context.tsx</title>
<g id="a_node10"><a xlink:href="src/shared/lib/modalManager/context.tsx" xlink:title="context.tsx">
<path fill="#bbfeff" stroke="black" d="M1055.96,-349.88C1055.96,-349.88 1009.04,-349.88 1009.04,-349.88 1006.08,-349.88 1003.12,-346.92 1003.12,-343.96 1003.12,-343.96 1003.12,-338.04 1003.12,-338.04 1003.12,-335.08 1006.08,-332.12 1009.04,-332.12 1009.04,-332.12 1055.96,-332.12 1055.96,-332.12 1058.92,-332.12 1061.88,-335.08 1061.88,-338.04 1061.88,-338.04 1061.88,-343.96 1061.88,-343.96 1061.88,-346.92 1058.92,-349.88 1055.96,-349.88"/>
<text text-anchor="start" x="1011.12" y="-337.32" font-family="Helvetica,sans-Serif" font-size="9.00">context.tsx</text>
</a>
</g>
</g>
<!-- src/shared/lib/modalManager/index.tsx&#45;&gt;src/shared/lib/modalManager/context.tsx -->
<g id="edge16" class="edge">
<title>src/shared/lib/modalManager/index.tsx&#45;&gt;src/shared/lib/modalManager/context.tsx</title>
<path fill="none" stroke="#000000" stroke-width="2" stroke-opacity="0.200000" d="M762.07,-284.25C788.94,-297.99 842.47,-323.29 891.25,-334 926.15,-341.67 967.07,-342.85 995.66,-342.46"/>
<polygon fill="#000000" fill-opacity="0.200000" stroke="#000000" stroke-width="2" stroke-opacity="0.200000" points="1001.7,-344.45 995.66,-342.46 1001.62,-340.25 1001.7,-344.45"/>
</g>
<!-- src/shared/lib/modalManager/createModal.tsx -->
<g id="node12" class="node">
<title>src/shared/lib/modalManager/createModal.tsx</title>
<g id="a_node12"><a xlink:href="src/shared/lib/modalManager/createModal.tsx" xlink:title="createModal.tsx">
<path fill="#bbfeff" stroke="black" d="M971.46,-297.88C971.46,-297.88 902.79,-297.88 902.79,-297.88 899.83,-297.88 896.88,-294.92 896.88,-291.96 896.88,-291.96 896.88,-286.04 896.88,-286.04 896.88,-283.08 899.83,-280.12 902.79,-280.12 902.79,-280.12 971.46,-280.12 971.46,-280.12 974.42,-280.12 977.38,-283.08 977.38,-286.04 977.38,-286.04 977.38,-291.96 977.38,-291.96 977.38,-294.92 974.42,-297.88 971.46,-297.88"/>
<text text-anchor="start" x="904.88" y="-285.32" font-family="Helvetica,sans-Serif" font-size="9.00">createModal.tsx</text>
</a>
</g>
</g>
<!-- src/shared/lib/modalManager/index.tsx&#45;&gt;src/shared/lib/modalManager/createModal.tsx -->
<g id="edge17" class="edge">
<title>src/shared/lib/modalManager/index.tsx&#45;&gt;src/shared/lib/modalManager/createModal.tsx</title>
<path fill="none" stroke="#000000" stroke-width="2" stroke-opacity="0.200000" d="M770.85,-276.92C801.42,-279.15 852.5,-282.89 889.8,-285.61"/>
<polygon fill="#000000" fill-opacity="0.200000" stroke="#000000" stroke-width="2" stroke-opacity="0.200000" points="895.45,-288.13 889.61,-285.6 895.75,-283.94 895.45,-288.13"/>
</g>
<!-- src/shared/lib/modalManager/modalsMap.ts -->
<g id="node14" class="node">
<title>src/shared/lib/modalManager/modalsMap.ts</title>
<g id="a_node14"><a xlink:href="src/shared/lib/modalManager/modalsMap.ts" xlink:title="modalsMap.ts">
<path fill="#ddfeff" stroke="black" d="M1063.08,-285.88C1063.08,-285.88 1001.92,-285.88 1001.92,-285.88 998.96,-285.88 996,-282.92 996,-279.96 996,-279.96 996,-274.04 996,-274.04 996,-271.08 998.96,-268.12 1001.92,-268.12 1001.92,-268.12 1063.08,-268.12 1063.08,-268.12 1066.04,-268.12 1069,-271.08 1069,-274.04 1069,-274.04 1069,-279.96 1069,-279.96 1069,-282.92 1066.04,-285.88 1063.08,-285.88"/>
<text text-anchor="start" x="1004" y="-273.32" font-family="Helvetica,sans-Serif" font-size="9.00">modalsMap.ts</text>
</a>
</g>
</g>
<!-- src/shared/lib/modalManager/index.tsx&#45;&gt;src/shared/lib/modalManager/modalsMap.ts -->
<g id="edge18" class="edge">
<title>src/shared/lib/modalManager/index.tsx&#45;&gt;src/shared/lib/modalManager/modalsMap.ts</title>
<path fill="none" stroke="#000000" stroke-width="2" stroke-opacity="0.200000" d="M771.09,-274.28C815.09,-273.23 906.06,-271.62 983,-274 984.94,-274.06 986.92,-274.13 988.92,-274.22"/>
<polygon fill="#000000" fill-opacity="0.200000" stroke="#000000" stroke-width="2" stroke-opacity="0.200000" points="994.66,-276.59 988.76,-274.21 994.85,-272.39 994.66,-276.59"/>
</g>
<!-- src/shared/lib/modalManager/registerModal.ts -->
<g id="node15" class="node">
<title>src/shared/lib/modalManager/registerModal.ts</title>
<g id="a_node15"><a xlink:href="src/shared/lib/modalManager/registerModal.ts" xlink:title="registerModal.ts">
<path fill="#ddfeff" stroke="black" d="M971.83,-327.88C971.83,-327.88 902.42,-327.88 902.42,-327.88 899.46,-327.88 896.5,-324.92 896.5,-321.96 896.5,-321.96 896.5,-316.04 896.5,-316.04 896.5,-313.08 899.46,-310.12 902.42,-310.12 902.42,-310.12 971.83,-310.12 971.83,-310.12 974.79,-310.12 977.75,-313.08 977.75,-316.04 977.75,-316.04 977.75,-321.96 977.75,-321.96 977.75,-324.92 974.79,-327.88 971.83,-327.88"/>
<text text-anchor="start" x="904.5" y="-315.32" font-family="Helvetica,sans-Serif" font-size="9.00">registerModal.ts</text>
</a>
</g>
</g>
<!-- src/shared/lib/modalManager/index.tsx&#45;&gt;src/shared/lib/modalManager/registerModal.ts -->
<g id="edge19" class="edge">
<title>src/shared/lib/modalManager/index.tsx&#45;&gt;src/shared/lib/modalManager/registerModal.ts</title>
<path fill="none" stroke="#000000" stroke-width="2" stroke-opacity="0.200000" d="M770.85,-281.03C801.32,-288.03 852.18,-299.71 889.45,-308.27"/>
<polygon fill="#000000" fill-opacity="0.200000" stroke="#000000" stroke-width="2" stroke-opacity="0.200000" points="894.79,-311.66 889.42,-308.27 895.73,-307.56 894.79,-311.66"/>
</g>
<!-- src/shared/lib/modalManager/useModal.ts -->
<g id="node16" class="node">
<title>src/shared/lib/modalManager/useModal.ts</title>
<g id="a_node16"><a xlink:href="src/shared/lib/modalManager/useModal.ts" xlink:title="useModal.ts">
<path fill="#ddfeff" stroke="black" d="M872.33,-371.88C872.33,-371.88 818.67,-371.88 818.67,-371.88 815.71,-371.88 812.75,-368.92 812.75,-365.96 812.75,-365.96 812.75,-360.04 812.75,-360.04 812.75,-357.08 815.71,-354.12 818.67,-354.12 818.67,-354.12 872.33,-354.12 872.33,-354.12 875.29,-354.12 878.25,-357.08 878.25,-360.04 878.25,-360.04 878.25,-365.96 878.25,-365.96 878.25,-368.92 875.29,-371.88 872.33,-371.88"/>
<text text-anchor="start" x="820.75" y="-359.32" font-family="Helvetica,sans-Serif" font-size="9.00">useModal.ts</text>
</a>
</g>
</g>
<!-- src/shared/lib/modalManager/index.tsx&#45;&gt;src/shared/lib/modalManager/useModal.ts -->
<g id="edge20" class="edge">
<title>src/shared/lib/modalManager/index.tsx&#45;&gt;src/shared/lib/modalManager/useModal.ts</title>
<path fill="none" stroke="#000000" stroke-width="2" stroke-opacity="0.200000" d="M751.9,-283.97C763.66,-298.11 788.05,-325.93 812.75,-345 815.06,-346.79 817.57,-348.51 820.14,-350.14"/>
<polygon fill="#000000" fill-opacity="0.200000" stroke="#000000" stroke-width="2" stroke-opacity="0.200000" points="824.2,-355.04 820.14,-350.15 826.36,-351.44 824.2,-355.04"/>
</g>
<!-- src/shared/ui/AlertModal/AlertModal.tsx -->
<g id="node18" class="node">
<title>src/shared/ui/AlertModal/AlertModal.tsx</title>
<g id="a_node18"><a xlink:href="src/shared/ui/AlertModal/AlertModal.tsx" xlink:title="AlertModal.tsx">
<path fill="#bbfeff" stroke="black" d="M561.33,-129.88C561.33,-129.88 499.42,-129.88 499.42,-129.88 496.46,-129.88 493.5,-126.92 493.5,-123.96 493.5,-123.96 493.5,-118.04 493.5,-118.04 493.5,-115.08 496.46,-112.12 499.42,-112.12 499.42,-112.12 561.33,-112.12 561.33,-112.12 564.29,-112.12 567.25,-115.08 567.25,-118.04 567.25,-118.04 567.25,-123.96 567.25,-123.96 567.25,-126.92 564.29,-129.88 561.33,-129.88"/>
<text text-anchor="start" x="501.5" y="-117.33" font-family="Helvetica,sans-Serif" font-size="9.00">AlertModal.tsx</text>
</a>
</g>
</g>
<!-- src/shared/ui/index.ts&#45;&gt;src/shared/ui/AlertModal/AlertModal.tsx -->
<g id="edge37" class="edge">
<title>src/shared/ui/index.ts&#45;&gt;src/shared/ui/AlertModal/AlertModal.tsx</title>
<path fill="none" stroke="#000000" stroke-width="2" stroke-opacity="0.200000" d="M471.06,-121C475.87,-121 480.99,-121 486.14,-121"/>
<polygon fill="#000000" fill-opacity="0.200000" stroke="#000000" stroke-width="2" stroke-opacity="0.200000" points="492.13,-123.1 486.13,-121 492.13,-118.9 492.13,-123.1"/>
</g>
<!-- src/shared/ui/Modal/Modal.tsx -->
<g id="node19" class="node">
<title>src/shared/ui/Modal/Modal.tsx</title>
<g id="a_node19"><a xlink:href="src/shared/ui/Modal/Modal.tsx" xlink:title="Modal.tsx">
<path fill="#bbfeff" stroke="black" d="M657.83,-146.88C657.83,-146.88 614.67,-146.88 614.67,-146.88 611.71,-146.88 608.75,-143.92 608.75,-140.96 608.75,-140.96 608.75,-135.04 608.75,-135.04 608.75,-132.08 611.71,-129.12 614.67,-129.12 614.67,-129.12 657.83,-129.12 657.83,-129.12 660.79,-129.12 663.75,-132.08 663.75,-135.04 663.75,-135.04 663.75,-140.96 663.75,-140.96 663.75,-143.92 660.79,-146.88 657.83,-146.88"/>
<text text-anchor="start" x="616.75" y="-134.32" font-family="Helvetica,sans-Serif" font-size="9.00">Modal.tsx</text>
</a>
</g>
</g>
<!-- src/shared/ui/index.ts&#45;&gt;src/shared/ui/Modal/Modal.tsx -->
<g id="edge40" class="edge">
<title>src/shared/ui/index.ts&#45;&gt;src/shared/ui/Modal/Modal.tsx</title>
<path fill="none" stroke="#000000" stroke-width="2" stroke-opacity="0.200000" d="M456.94,-111.68C463.12,-107.54 470.95,-103.12 478.75,-101 523.03,-88.94 538.21,-87.28 582,-101 596.68,-105.6 610.87,-115.84 620.9,-124.38"/>
<polygon fill="#000000" fill-opacity="0.200000" stroke="#000000" stroke-width="2" stroke-opacity="0.200000" points="623.88,-129.82 620.78,-124.27 626.66,-126.67 623.88,-129.82"/>
</g>
<!-- src/shared/ui/ConfirmModal/ConfirmModal.tsx -->
<g id="node20" class="node">
<title>src/shared/ui/ConfirmModal/ConfirmModal.tsx</title>
<g id="a_node20"><a xlink:href="src/shared/ui/ConfirmModal/ConfirmModal.tsx" xlink:title="ConfirmModal.tsx">
<path fill="#bbfeff" stroke="black" d="M568.08,-189.88C568.08,-189.88 492.67,-189.88 492.67,-189.88 489.71,-189.88 486.75,-186.92 486.75,-183.96 486.75,-183.96 486.75,-178.04 486.75,-178.04 486.75,-175.08 489.71,-172.12 492.67,-172.12 492.67,-172.12 568.08,-172.12 568.08,-172.12 571.04,-172.12 574,-175.08 574,-178.04 574,-178.04 574,-183.96 574,-183.96 574,-186.92 571.04,-189.88 568.08,-189.88"/>
<text text-anchor="start" x="494.75" y="-177.32" font-family="Helvetica,sans-Serif" font-size="9.00">ConfirmModal.tsx</text>
</a>
</g>
</g>
<!-- src/shared/ui/index.ts&#45;&gt;src/shared/ui/ConfirmModal/ConfirmModal.tsx -->
<g id="edge38" class="edge">
<title>src/shared/ui/index.ts&#45;&gt;src/shared/ui/ConfirmModal/ConfirmModal.tsx</title>
<path fill="none" stroke="#000000" stroke-width="2" stroke-opacity="0.200000" d="M451.14,-130.16C457.38,-138.57 467.55,-150.92 478.75,-159 483.94,-162.75 489.87,-166.04 495.8,-168.86"/>
<polygon fill="#000000" fill-opacity="0.200000" stroke="#000000" stroke-width="2" stroke-opacity="0.200000" points="500.43,-173.23 495.82,-168.86 502.15,-169.4 500.43,-173.23"/>
</g>
<!-- src/shared/ui/Layout/Layout.tsx -->
<g id="node22" class="node">
<title>src/shared/ui/Layout/Layout.tsx</title>
<g id="a_node22"><a xlink:href="src/shared/ui/Layout/Layout.tsx" xlink:title="Layout.tsx">
<path fill="#bbfeff" stroke="black" d="M553.08,-59.88C553.08,-59.88 507.67,-59.88 507.67,-59.88 504.71,-59.88 501.75,-56.92 501.75,-53.96 501.75,-53.96 501.75,-48.04 501.75,-48.04 501.75,-45.08 504.71,-42.12 507.67,-42.12 507.67,-42.12 553.08,-42.12 553.08,-42.12 556.04,-42.12 559,-45.08 559,-48.04 559,-48.04 559,-53.96 559,-53.96 559,-56.92 556.04,-59.88 553.08,-59.88"/>
<text text-anchor="start" x="509.75" y="-47.33" font-family="Helvetica,sans-Serif" font-size="9.00">Layout.tsx</text>
</a>
</g>
</g>
<!-- src/shared/ui/index.ts&#45;&gt;src/shared/ui/Layout/Layout.tsx -->
<g id="edge39" class="edge">
<title>src/shared/ui/index.ts&#45;&gt;src/shared/ui/Layout/Layout.tsx</title>
<path fill="none" stroke="#000000" stroke-width="2" stroke-opacity="0.200000" d="M447.72,-111.77C452.3,-99.04 462.33,-76.28 478.75,-64 483.45,-60.48 489.01,-57.92 494.69,-56.04"/>
<polygon fill="#000000" fill-opacity="0.200000" stroke="#000000" stroke-width="2" stroke-opacity="0.200000" points="500.98,-56.43 494.64,-56.05 499.84,-52.39 500.98,-56.43"/>
</g>
<!-- src/app/entry.css -->
<g id="node7" class="node">
<title>src/app/entry.css</title>
<g id="a_node7"><a xlink:href="src/app/entry.css" xlink:title="entry.css">
<path fill="#ffffcc" stroke="black" d="M139.08,-238.88C139.08,-238.88 96.92,-238.88 96.92,-238.88 93.96,-238.88 91,-235.92 91,-232.96 91,-232.96 91,-227.04 91,-227.04 91,-224.08 93.96,-221.12 96.92,-221.12 96.92,-221.12 139.08,-221.12 139.08,-221.12 142.04,-221.12 145,-224.08 145,-227.04 145,-227.04 145,-232.96 145,-232.96 145,-235.92 142.04,-238.88 139.08,-238.88"/>
<text text-anchor="start" x="100" y="-226.32" font-family="Helvetica,sans-Serif" font-size="9.00">entry.css</text>
</a>
</g>
</g>
<!-- src/app/entry.tsx -->
<g id="node8" class="node">
<title>src/app/entry.tsx</title>
<g id="a_node8"><a xlink:href="src/app/entry.tsx" xlink:title="entry.tsx">
<path fill="#bbfeff" stroke="black" d="M72.08,-223.88C72.08,-223.88 29.92,-223.88 29.92,-223.88 26.96,-223.88 24,-220.92 24,-217.96 24,-217.96 24,-212.04 24,-212.04 24,-209.08 26.96,-206.12 29.92,-206.12 29.92,-206.12 72.08,-206.12 72.08,-206.12 75.04,-206.12 78,-209.08 78,-212.04 78,-212.04 78,-217.96 78,-217.96 78,-220.92 75.04,-223.88 72.08,-223.88"/>
<text text-anchor="start" x="34.12" y="-211.32" font-family="Helvetica,sans-Serif" font-size="9.00">entry.tsx</text>
</a>
</g>
</g>
<!-- src/app/entry.tsx&#45;&gt;src/app/App.tsx -->
<g id="edge6" class="edge">
<title>src/app/entry.tsx&#45;&gt;src/app/App.tsx</title>
<path fill="none" stroke="#000000" stroke-width="2" stroke-opacity="0.200000" d="M78.44,-208.9C79.71,-208.6 81,-208.31 82.29,-208.01"/>
<polygon fill="#000000" fill-opacity="0.200000" stroke="#000000" stroke-width="2" stroke-opacity="0.200000" points="82.47,-210.12 87.85,-206.73 81.53,-206.03 82.47,-210.12"/>
</g>
<!-- src/app/entry.tsx&#45;&gt;src/app/entry.css -->
<g id="edge7" class="edge">
<title>src/app/entry.tsx&#45;&gt;src/app/entry.css</title>
<path fill="none" stroke="#000000" stroke-width="2" stroke-opacity="0.200000" d="M78.44,-221.1C79.71,-221.4 81,-221.69 82.29,-221.99"/>
<polygon fill="#000000" fill-opacity="0.200000" stroke="#000000" stroke-width="2" stroke-opacity="0.200000" points="81.53,-223.97 87.85,-223.27 82.47,-219.88 81.53,-223.97"/>
</g>
<!-- src/features/session/login/ui/LoginForm/LoginForm.tsx&#45;&gt;src/shared/lib/modalManager/index.tsx -->
<g id="edge8" class="edge">
<title>src/features/session/login/ui/LoginForm/LoginForm.tsx&#45;&gt;src/shared/lib/modalManager/index.tsx</title>
<path fill="none" stroke="#000000" stroke-width="2" stroke-opacity="0.200000" d="M330.36,-55.75C346.32,-45.41 374.12,-29.29 400.75,-23 474.67,-5.53 646.59,12.09 690.5,-31 702.02,-42.3 694.71,-160.32 698.5,-176 705.82,-206.3 722.14,-238.83 732.75,-258.03"/>
<polygon fill="#000000" fill-opacity="0.200000" stroke="#000000" stroke-width="2" stroke-opacity="0.200000" points="730.9,-259.02 735.68,-263.21 734.56,-256.96 730.9,-259.02"/>
</g>
<!-- src/features/session/login/ui/LoginForm/LoginForm.tsx&#45;&gt;src/shared/ui/index.ts -->
<g id="edge9" class="edge">
<title>src/features/session/login/ui/LoginForm/LoginForm.tsx&#45;&gt;src/shared/ui/index.ts</title>
<path fill="none" stroke="#000000" stroke-width="2" stroke-opacity="0.200000" d="M337.94,-74.37C358.76,-83.64 390.77,-97.87 413.93,-108.18"/>
<polygon fill="#000000" fill-opacity="0.200000" stroke="#000000" stroke-width="2" stroke-opacity="0.200000" points="412.93,-110.03 419.27,-110.55 414.64,-106.19 412.93,-110.03"/>
</g>
<!-- src/shared/lib/modalManager/types.ts -->
<g id="node11" class="node">
<title>src/shared/lib/modalManager/types.ts</title>
<g id="a_node11"><a xlink:href="src/shared/lib/modalManager/types.ts" xlink:title="types.ts">
<path fill="#ddfeff" stroke="black" d="M1130.08,-349.88C1130.08,-349.88 1087.92,-349.88 1087.92,-349.88 1084.96,-349.88 1082,-346.92 1082,-343.96 1082,-343.96 1082,-338.04 1082,-338.04 1082,-335.08 1084.96,-332.12 1087.92,-332.12 1087.92,-332.12 1130.08,-332.12 1130.08,-332.12 1133.04,-332.12 1136,-335.08 1136,-338.04 1136,-338.04 1136,-343.96 1136,-343.96 1136,-346.92 1133.04,-349.88 1130.08,-349.88"/>
<text text-anchor="start" x="1093.62" y="-337.32" font-family="Helvetica,sans-Serif" font-size="9.00">types.ts</text>
</a>
</g>
</g>
<!-- src/shared/lib/modalManager/context.tsx&#45;&gt;src/shared/lib/modalManager/types.ts -->
<g id="edge12" class="edge">
<title>src/shared/lib/modalManager/context.tsx&#45;&gt;src/shared/lib/modalManager/types.ts</title>
<path fill="none" stroke="#000000" stroke-opacity="0.200000" d="M1062.09,-341C1066.09,-341 1070.23,-341 1074.32,-341"/>
<polygon fill="none" stroke="#000000" stroke-opacity="0.200000" points="1074.05,-343.1 1080.05,-341 1074.05,-338.9 1074.05,-343.1"/>
</g>
<!-- src/shared/lib/modalManager/createModal.tsx&#45;&gt;src/shared/lib/modalManager/context.tsx -->
<g id="edge13" class="edge">
<title>src/shared/lib/modalManager/createModal.tsx&#45;&gt;src/shared/lib/modalManager/context.tsx</title>
<path fill="none" stroke="#000000" stroke-width="2" stroke-opacity="0.200000" d="M970.05,-298.22C974.5,-299.92 978.93,-301.85 983,-304 994.26,-309.96 1005.65,-318.49 1014.56,-325.86"/>
<polygon fill="#000000" fill-opacity="0.200000" stroke="#000000" stroke-width="2" stroke-opacity="0.200000" points="1013.17,-327.44 1019.1,-329.73 1015.89,-324.24 1013.17,-327.44"/>
</g>
<!-- src/shared/lib/modalManager/createModal.tsx&#45;&gt;src/shared/lib/modalManager/types.ts -->
<g id="edge14" class="edge">
<title>src/shared/lib/modalManager/createModal.tsx&#45;&gt;src/shared/lib/modalManager/types.ts</title>
<path fill="none" stroke="#000000" stroke-opacity="0.200000" d="M977.66,-292.77C1004.25,-296.28 1039.67,-302.87 1069,-315 1076.56,-318.12 1084.19,-322.8 1090.68,-327.33"/>
<polygon fill="none" stroke="#000000" stroke-opacity="0.200000" points="1089.43,-329.02 1095.51,-330.86 1091.9,-325.63 1089.43,-329.02"/>
</g>
<!-- src/shared/lib/modalManager/getModalId.ts -->
<g id="node13" class="node">
<title>src/shared/lib/modalManager/getModalId.ts</title>
<g id="a_node13"><a xlink:href="src/shared/lib/modalManager/getModalId.ts" xlink:title="getModalId.ts">
<path fill="#ddfeff" stroke="black" d="M1061.96,-413.88C1061.96,-413.88 1003.04,-413.88 1003.04,-413.88 1000.08,-413.88 997.12,-410.92 997.12,-407.96 997.12,-407.96 997.12,-402.04 997.12,-402.04 997.12,-399.08 1000.08,-396.12 1003.04,-396.12 1003.04,-396.12 1061.96,-396.12 1061.96,-396.12 1064.92,-396.12 1067.88,-399.08 1067.88,-402.04 1067.88,-402.04 1067.88,-407.96 1067.88,-407.96 1067.88,-410.92 1064.92,-413.88 1061.96,-413.88"/>
<text text-anchor="start" x="1005.12" y="-401.32" font-family="Helvetica,sans-Serif" font-size="9.00">getModalId.ts</text>
</a>
</g>
</g>
<!-- src/shared/lib/modalManager/getModalId.ts&#45;&gt;src/shared/lib/modalManager/types.ts -->
<g id="edge15" class="edge">
<title>src/shared/lib/modalManager/getModalId.ts&#45;&gt;src/shared/lib/modalManager/types.ts</title>
<path fill="none" stroke="#000000" stroke-opacity="0.200000" d="M1055.36,-395.64C1060.08,-393.16 1064.88,-390.25 1069,-387 1080.19,-378.16 1090.51,-365.71 1097.72,-355.99"/>
<polygon fill="none" stroke="#000000" stroke-opacity="0.200000" points="1099.3,-357.39 1101.1,-351.29 1095.89,-354.94 1099.3,-357.39"/>
</g>
<!-- src/shared/lib/modalManager/modalsMap.ts&#45;&gt;src/shared/lib/modalManager/types.ts -->
<g id="edge21" class="edge">
<title>src/shared/lib/modalManager/modalsMap.ts&#45;&gt;src/shared/lib/modalManager/types.ts</title>
<path fill="none" stroke="#000000" stroke-opacity="0.200000" d="M1050.38,-286.2C1056.49,-289.85 1063.29,-294.3 1069,-299 1078.86,-307.12 1088.64,-317.66 1095.94,-326.14"/>
<polygon fill="none" stroke="#000000" stroke-opacity="0.200000" points="1094.12,-327.24 1099.59,-330.48 1097.33,-324.54 1094.12,-327.24"/>
</g>
<!-- src/shared/lib/modalManager/registerModal.ts&#45;&gt;src/shared/lib/modalManager/context.tsx -->
<g id="edge22" class="edge">
<title>src/shared/lib/modalManager/registerModal.ts&#45;&gt;src/shared/lib/modalManager/context.tsx</title>
<path fill="none" stroke="#000000" stroke-width="2" stroke-opacity="0.200000" d="M977.72,-328.33C983.27,-329.64 988.95,-330.98 994.45,-332.27"/>
<polygon fill="#000000" fill-opacity="0.200000" stroke="#000000" stroke-width="2" stroke-opacity="0.200000" points="993.62,-334.23 999.94,-333.56 994.58,-330.14 993.62,-334.23"/>
</g>
<!-- src/shared/lib/modalManager/registerModal.ts&#45;&gt;src/shared/lib/modalManager/types.ts -->
<g id="edge23" class="edge">
<title>src/shared/lib/modalManager/registerModal.ts&#45;&gt;src/shared/lib/modalManager/types.ts</title>
<path fill="none" stroke="#000000" stroke-opacity="0.200000" d="M978.07,-317.92C1004.21,-317.99 1038.96,-319.59 1069,-326 1072.72,-326.79 1076.55,-327.89 1080.29,-329.13"/>
<polygon fill="none" stroke="#000000" stroke-opacity="0.200000" points="1079.54,-331.1 1085.89,-331.15 1080.96,-327.14 1079.54,-331.1"/>
</g>
<!-- src/shared/lib/modalManager/useModal.ts&#45;&gt;src/shared/lib/modalManager/context.tsx -->
<g id="edge26" class="edge">
<title>src/shared/lib/modalManager/useModal.ts&#45;&gt;src/shared/lib/modalManager/context.tsx</title>
<path fill="none" stroke="#000000" stroke-width="2" stroke-opacity="0.200000" d="M878.72,-359.17C910.84,-355.35 960.14,-349.49 994,-345.46"/>
<polygon fill="#000000" fill-opacity="0.200000" stroke="#000000" stroke-width="2" stroke-opacity="0.200000" points="993.97,-347.58 999.68,-344.78 993.47,-343.41 993.97,-347.58"/>
</g>
<!-- src/shared/lib/modalManager/useModal.ts&#45;&gt;src/shared/lib/modalManager/types.ts -->
<g id="edge29" class="edge">
<title>src/shared/lib/modalManager/useModal.ts&#45;&gt;src/shared/lib/modalManager/types.ts</title>
<path fill="none" stroke="#000000" stroke-opacity="0.200000" d="M857.01,-372.34C865.56,-379.27 878.29,-388.17 891.25,-392 930.35,-403.56 942.63,-397.75 983,-392 1002.7,-389.19 1050.96,-375.4 1069,-367 1076.3,-363.6 1083.79,-358.94 1090.23,-354.51"/>
<polygon fill="none" stroke="#000000" stroke-opacity="0.200000" points="1091.37,-356.27 1095.04,-351.08 1088.93,-352.85 1091.37,-356.27"/>
</g>
<!-- src/shared/lib/modalManager/useModal.ts&#45;&gt;src/shared/lib/modalManager/getModalId.ts -->
<g id="edge27" class="edge">
<title>src/shared/lib/modalManager/useModal.ts&#45;&gt;src/shared/lib/modalManager/getModalId.ts</title>
<path fill="none" stroke="#000000" stroke-width="2" stroke-opacity="0.200000" d="M853.23,-372.03C861.1,-381.76 875.13,-396.72 891.25,-403 921.96,-414.98 959.4,-414.85 987.87,-412.07"/>
<polygon fill="#000000" fill-opacity="0.200000" stroke="#000000" stroke-width="2" stroke-opacity="0.200000" points="988.04,-414.16 993.77,-411.41 987.58,-409.99 988.04,-414.16"/>
</g>
<!-- src/shared/lib/modalManager/useModal.ts&#45;&gt;src/shared/lib/modalManager/registerModal.ts -->
<g id="edge28" class="edge">
<title>src/shared/lib/modalManager/useModal.ts&#45;&gt;src/shared/lib/modalManager/registerModal.ts</title>
<path fill="none" stroke="#000000" stroke-width="2" stroke-opacity="0.200000" d="M865.51,-353.67C878.22,-347.43 895.14,-339.12 909.23,-332.2"/>
<polygon fill="#000000" fill-opacity="0.200000" stroke="#000000" stroke-width="2" stroke-opacity="0.200000" points="909.97,-334.18 914.43,-329.65 908.12,-330.41 909.97,-334.18"/>
</g>
<!-- src/shared/lib/modalManager/unregisterModal.ts -->
<g id="node17" class="node">
<title>src/shared/lib/modalManager/unregisterModal.ts</title>
<g id="a_node17"><a xlink:href="src/shared/lib/modalManager/unregisterModal.ts" xlink:title="unregisterModal.ts">
<path fill="#ddfeff" stroke="black" d="M977.08,-385.88C977.08,-385.88 897.17,-385.88 897.17,-385.88 894.21,-385.88 891.25,-382.92 891.25,-379.96 891.25,-379.96 891.25,-374.04 891.25,-374.04 891.25,-371.08 894.21,-368.12 897.17,-368.12 897.17,-368.12 977.08,-368.12 977.08,-368.12 980.04,-368.12 983,-371.08 983,-374.04 983,-374.04 983,-379.96 983,-379.96 983,-382.92 980.04,-385.88 977.08,-385.88"/>
<text text-anchor="start" x="899.25" y="-373.32" font-family="Helvetica,sans-Serif" font-size="9.00">unregisterModal.ts</text>
</a>
</g>
</g>
<!-- src/shared/lib/modalManager/unregisterModal.ts&#45;&gt;src/shared/lib/modalManager/context.tsx -->
<g id="edge24" class="edge">
<title>src/shared/lib/modalManager/unregisterModal.ts&#45;&gt;src/shared/lib/modalManager/context.tsx</title>
<path fill="none" stroke="#000000" stroke-width="2" stroke-opacity="0.200000" d="M962.17,-367.73C973.41,-363.4 986.96,-358.17 999.09,-353.5"/>
<polygon fill="#000000" fill-opacity="0.200000" stroke="#000000" stroke-width="2" stroke-opacity="0.200000" points="999.54,-355.57 1004.39,-351.45 998.03,-351.65 999.54,-355.57"/>
</g>
<!-- src/shared/lib/modalManager/unregisterModal.ts&#45;&gt;src/shared/lib/modalManager/types.ts -->
<g id="edge25" class="edge">
<title>src/shared/lib/modalManager/unregisterModal.ts&#45;&gt;src/shared/lib/modalManager/types.ts</title>
<path fill="none" stroke="#000000" stroke-opacity="0.200000" d="M983.44,-372.09C1008.86,-368.75 1041,-363.54 1069,-356 1072.41,-355.08 1075.93,-353.97 1079.4,-352.77"/>
<polygon fill="none" stroke="#000000" stroke-opacity="0.200000" points="1080.06,-354.77 1084.98,-350.74 1078.62,-350.82 1080.06,-354.77"/>
</g>
<!-- src/shared/ui/AlertModal/AlertModal.tsx&#45;&gt;src/shared/lib/modalManager/index.tsx -->
<g id="edge31" class="edge">
<title>src/shared/ui/AlertModal/AlertModal.tsx&#45;&gt;src/shared/lib/modalManager/index.tsx</title>
<path fill="none" stroke="#000000" stroke-width="2" stroke-opacity="0.200000" d="M546.03,-130.16C556.93,-137.51 571.66,-148.62 582,-161 586.84,-166.8 584.13,-171.24 590,-176 626.12,-205.26 652.28,-178.53 690.5,-205 710.23,-218.67 725.5,-242.22 734.27,-258.19"/>
<polygon fill="#000000" fill-opacity="0.200000" stroke="#000000" stroke-width="2" stroke-opacity="0.200000" points="732.2,-258.75 736.85,-263.08 735.91,-256.8 732.2,-258.75"/>
</g>
<!-- src/shared/ui/AlertModal/AlertModal.tsx&#45;&gt;src/shared/ui/Modal/Modal.tsx -->
<g id="edge30" class="edge">
<title>src/shared/ui/AlertModal/AlertModal.tsx&#45;&gt;src/shared/ui/Modal/Modal.tsx</title>
<path fill="none" stroke="#000000" stroke-width="2" stroke-opacity="0.200000" d="M567.71,-126.95C578.02,-128.63 589.25,-130.47 599.53,-132.15"/>
<polygon fill="#000000" fill-opacity="0.200000" stroke="#000000" stroke-width="2" stroke-opacity="0.200000" points="599.02,-134.2 605.28,-133.1 599.7,-130.05 599.02,-134.2"/>
</g>
<!-- src/shared/ui/Modal/Modal.tsx&#45;&gt;src/shared/lib/modalManager/index.tsx -->
<g id="edge36" class="edge">
<title>src/shared/ui/Modal/Modal.tsx&#45;&gt;src/shared/lib/modalManager/index.tsx</title>
<path fill="none" stroke="#000000" stroke-width="2" stroke-opacity="0.200000" d="M646.4,-147.04C657.41,-158.12 676.2,-177.68 690.5,-196 706.52,-216.51 722.67,-241.88 732.66,-258.25"/>
<polygon fill="#000000" fill-opacity="0.200000" stroke="#000000" stroke-width="2" stroke-opacity="0.200000" points="730.82,-259.27 735.72,-263.32 734.42,-257.1 730.82,-259.27"/>
</g>
<!-- src/shared/ui/Modal/Modal.module.css -->
<g id="node23" class="node">
<title>src/shared/ui/Modal/Modal.module.css</title>
<g id="a_node23"><a xlink:href="src/shared/ui/Modal/Modal.module.css" xlink:title="Modal.module.css">
<path fill="#ffffcc" stroke="black" d="M782.83,-146.88C782.83,-146.88 704.42,-146.88 704.42,-146.88 701.46,-146.88 698.5,-143.92 698.5,-140.96 698.5,-140.96 698.5,-135.04 698.5,-135.04 698.5,-132.08 701.46,-129.12 704.42,-129.12 704.42,-129.12 782.83,-129.12 782.83,-129.12 785.79,-129.12 788.75,-132.08 788.75,-135.04 788.75,-135.04 788.75,-140.96 788.75,-140.96 788.75,-143.92 785.79,-146.88 782.83,-146.88"/>
<text text-anchor="start" x="706.5" y="-134.32" font-family="Helvetica,sans-Serif" font-size="9.00">Modal.module.css</text>
</a>
</g>
</g>
<!-- src/shared/ui/Modal/Modal.tsx&#45;&gt;src/shared/ui/Modal/Modal.module.css -->
<g id="edge35" class="edge">
<title>src/shared/ui/Modal/Modal.tsx&#45;&gt;src/shared/ui/Modal/Modal.module.css</title>
<path fill="none" stroke="#000000" stroke-width="2" stroke-opacity="0.200000" d="M664.11,-138C671.89,-138 680.66,-138 689.45,-138"/>
<polygon fill="#000000" fill-opacity="0.200000" stroke="#000000" stroke-width="2" stroke-opacity="0.200000" points="689.18,-140.1 695.18,-138 689.18,-135.9 689.18,-140.1"/>
</g>
<!-- src/shared/ui/ConfirmModal/ConfirmModal.tsx&#45;&gt;src/shared/lib/modalManager/index.tsx -->
<g id="edge33" class="edge">
<title>src/shared/ui/ConfirmModal/ConfirmModal.tsx&#45;&gt;src/shared/lib/modalManager/index.tsx</title>
<path fill="none" stroke="#000000" stroke-width="2" stroke-opacity="0.200000" d="M552.4,-190.36C590.36,-207.25 670.4,-242.86 713.56,-262.07"/>
<polygon fill="#000000" fill-opacity="0.200000" stroke="#000000" stroke-width="2" stroke-opacity="0.200000" points="712.58,-263.93 718.92,-264.45 714.29,-260.09 712.58,-263.93"/>
</g>
<!-- src/shared/ui/ConfirmModal/ConfirmModal.tsx&#45;&gt;src/shared/ui/Modal/Modal.tsx -->
<g id="edge32" class="edge">
<title>src/shared/ui/ConfirmModal/ConfirmModal.tsx&#45;&gt;src/shared/ui/Modal/Modal.tsx</title>
<path fill="none" stroke="#000000" stroke-width="2" stroke-opacity="0.200000" d="M553.91,-171.67C568.75,-165.53 588.36,-157.41 604.61,-150.68"/>
<polygon fill="#000000" fill-opacity="0.200000" stroke="#000000" stroke-width="2" stroke-opacity="0.200000" points="605.22,-152.71 609.96,-148.47 603.61,-148.82 605.22,-152.71"/>
</g>
<!-- src/shared/ui/Layout/Layout.module.css -->
<g id="node21" class="node">
<title>src/shared/ui/Layout/Layout.module.css</title>
<g id="a_node21"><a xlink:href="src/shared/ui/Layout/Layout.module.css" xlink:title="Layout.module.css">
<path fill="#ffffcc" stroke="black" d="M676.58,-59.88C676.58,-59.88 595.92,-59.88 595.92,-59.88 592.96,-59.88 590,-56.92 590,-53.96 590,-53.96 590,-48.04 590,-48.04 590,-45.08 592.96,-42.12 595.92,-42.12 595.92,-42.12 676.58,-42.12 676.58,-42.12 679.54,-42.12 682.5,-45.08 682.5,-48.04 682.5,-48.04 682.5,-53.96 682.5,-53.96 682.5,-56.92 679.54,-59.88 676.58,-59.88"/>
<text text-anchor="start" x="598" y="-47.33" font-family="Helvetica,sans-Serif" font-size="9.00">Layout.module.css</text>
</a>
</g>
</g>
<!-- src/shared/ui/Layout/Layout.tsx&#45;&gt;src/shared/ui/Layout/Layout.module.css -->
<g id="edge34" class="edge">
<title>src/shared/ui/Layout/Layout.tsx&#45;&gt;src/shared/ui/Layout/Layout.module.css</title>
<path fill="none" stroke="#000000" stroke-width="2" stroke-opacity="0.200000" d="M559.49,-51C566.22,-51 573.64,-51 581.12,-51"/>
<polygon fill="#000000" fill-opacity="0.200000" stroke="#000000" stroke-width="2" stroke-opacity="0.200000" points="580.87,-53.1 586.87,-51 580.87,-48.9 580.87,-53.1"/>
</g>
</g>
</svg>
