<?xml version="1.0" encoding="UTF-8" standalone="no"?>
<!DOCTYPE svg PUBLIC "-//W3C//DTD SVG 1.1//EN"
 "http://www.w3.org/Graphics/SVG/1.1/DTD/svg11.dtd">
<!-- Generated by graphviz version 11.0.0 (20240428.1522)
 -->
<!-- Title: dependency&#45;cruiser output Pages: 1 -->
<svg width="533pt" height="392pt"
 viewBox="0.00 0.00 532.50 392.00" xmlns="http://www.w3.org/2000/svg" xmlns:xlink="http://www.w3.org/1999/xlink">
<g id="graph0" class="graph" transform="scale(1 1) rotate(0) translate(4 388)">
<title>dependency&#45;cruiser output</title>
<polygon fill="white" stroke="none" points="-4,4 -4,-388 528.5,-388 528.5,4 -4,4"/>
<g id="clust1" class="cluster">
<title>cluster_src</title>
<path fill="#ffffff" stroke="black" stroke-width="2" d="M20,-8C20,-8 504.5,-8 504.5,-8 510.5,-8 516.5,-14 516.5,-20 516.5,-20 516.5,-364 516.5,-364 516.5,-370 510.5,-376 504.5,-376 504.5,-376 20,-376 20,-376 14,-376 8,-370 8,-364 8,-364 8,-20 8,-20 8,-14 14,-8 20,-8"/>
<text text-anchor="middle" x="262.25" y="-363.45" font-family="Helvetica,sans-Serif" font-weight="bold" font-size="9.00">src</text>
</g>
<g id="clust2" class="cluster">
<title>cluster_src/app</title>
<path fill="#ffffff" stroke="black" stroke-width="2" d="M28,-16C28,-16 318.25,-16 318.25,-16 324.25,-16 330.25,-22 330.25,-28 330.25,-28 330.25,-90 330.25,-90 330.25,-96 324.25,-102 318.25,-102 318.25,-102 28,-102 28,-102 22,-102 16,-96 16,-90 16,-90 16,-28 16,-28 16,-22 22,-16 28,-16"/>
<text text-anchor="middle" x="173.12" y="-89.45" font-family="Helvetica,sans-Serif" font-weight="bold" font-size="9.00">app</text>
</g>
<g id="clust3" class="cluster">
<title>cluster_src/app/layouts</title>
<path fill="#ffffff" stroke="black" stroke-width="2" d="M173,-24C173,-24 310.25,-24 310.25,-24 316.25,-24 322.25,-30 322.25,-36 322.25,-36 322.25,-64 322.25,-64 322.25,-70 316.25,-76 310.25,-76 310.25,-76 173,-76 173,-76 167,-76 161,-70 161,-64 161,-64 161,-36 161,-36 161,-30 167,-24 173,-24"/>
<text text-anchor="middle" x="241.62" y="-63.45" font-family="Helvetica,sans-Serif" font-weight="bold" font-size="9.00">layouts</text>
</g>
<g id="clust4" class="cluster">
<title>cluster_src/pages</title>
<path fill="#ffffff" stroke="black" stroke-width="2" d="M165,-110C165,-110 314.25,-110 314.25,-110 320.25,-110 326.25,-116 326.25,-122 326.25,-122 326.25,-338 326.25,-338 326.25,-344 320.25,-350 314.25,-350 314.25,-350 165,-350 165,-350 159,-350 153,-344 153,-338 153,-338 153,-122 153,-122 153,-116 159,-110 165,-110"/>
<text text-anchor="middle" x="239.62" y="-337.45" font-family="Helvetica,sans-Serif" font-weight="bold" font-size="9.00">pages</text>
</g>
<g id="clust5" class="cluster">
<title>cluster_src/pages/about</title>
<path fill="#ffffff" stroke="black" stroke-width="2" d="M173,-118C173,-118 306.12,-118 306.12,-118 312.12,-118 318.12,-124 318.12,-130 318.12,-130 318.12,-192 318.12,-192 318.12,-198 312.12,-204 306.12,-204 306.12,-204 173,-204 173,-204 167,-204 161,-198 161,-192 161,-192 161,-130 161,-130 161,-124 167,-118 173,-118"/>
<text text-anchor="middle" x="239.56" y="-191.45" font-family="Helvetica,sans-Serif" font-weight="bold" font-size="9.00">about</text>
</g>
<g id="clust6" class="cluster">
<title>cluster_src/pages/about/ui</title>
<path fill="#ffffff" stroke="black" stroke-width="2" d="M252.12,-126C252.12,-126 298.12,-126 298.12,-126 304.12,-126 310.12,-132 310.12,-138 310.12,-138 310.12,-166 310.12,-166 310.12,-172 304.12,-178 298.12,-178 298.12,-178 252.12,-178 252.12,-178 246.12,-178 240.12,-172 240.12,-166 240.12,-166 240.12,-138 240.12,-138 240.12,-132 246.12,-126 252.12,-126"/>
<text text-anchor="middle" x="275.12" y="-165.45" font-family="Helvetica,sans-Serif" font-weight="bold" font-size="9.00">ui</text>
</g>
<g id="clust7" class="cluster">
<title>cluster_src/pages/home</title>
<path fill="#ffffff" stroke="black" stroke-width="2" d="M173,-212C173,-212 306.25,-212 306.25,-212 312.25,-212 318.25,-218 318.25,-224 318.25,-224 318.25,-286 318.25,-286 318.25,-292 312.25,-298 306.25,-298 306.25,-298 173,-298 173,-298 167,-298 161,-292 161,-286 161,-286 161,-224 161,-224 161,-218 167,-212 173,-212"/>
<text text-anchor="middle" x="239.62" y="-285.45" font-family="Helvetica,sans-Serif" font-weight="bold" font-size="9.00">home</text>
</g>
<g id="clust8" class="cluster">
<title>cluster_src/pages/home/ui</title>
<path fill="#ffffff" stroke="black" stroke-width="2" d="M252,-220C252,-220 298.25,-220 298.25,-220 304.25,-220 310.25,-226 310.25,-232 310.25,-232 310.25,-260 310.25,-260 310.25,-266 304.25,-272 298.25,-272 298.25,-272 252,-272 252,-272 246,-272 240,-266 240,-260 240,-260 240,-232 240,-232 240,-226 246,-220 252,-220"/>
<text text-anchor="middle" x="275.12" y="-259.45" font-family="Helvetica,sans-Serif" font-weight="bold" font-size="9.00">ui</text>
</g>
<g id="clust9" class="cluster">
<title>cluster_src/shared</title>
<path fill="#ffffff" stroke="black" stroke-width="2" d="M350.25,-16C350.25,-16 495,-16 495,-16 501,-16 507,-22 507,-28 507,-28 507,-124 507,-124 507,-130 501,-136 495,-136 495,-136 350.25,-136 350.25,-136 344.25,-136 338.25,-130 338.25,-124 338.25,-124 338.25,-28 338.25,-28 338.25,-22 344.25,-16 350.25,-16"/>
<text text-anchor="middle" x="422.62" y="-123.45" font-family="Helvetica,sans-Serif" font-weight="bold" font-size="9.00">shared</text>
</g>
<g id="clust10" class="cluster">
<title>cluster_src/shared/ui</title>
<path fill="#ffffff" stroke="black" stroke-width="2" d="M358.25,-24C358.25,-24 487,-24 487,-24 493,-24 499,-30 499,-36 499,-36 499,-98 499,-98 499,-104 493,-110 487,-110 487,-110 358.25,-110 358.25,-110 352.25,-110 346.25,-104 346.25,-98 346.25,-98 346.25,-36 346.25,-36 346.25,-30 352.25,-24 358.25,-24"/>
<text text-anchor="middle" x="422.62" y="-97.45" font-family="Helvetica,sans-Serif" font-weight="bold" font-size="9.00">ui</text>
</g>
<g id="clust11" class="cluster">
<title>cluster_src/shared/ui/Layout</title>
<path fill="#ffffff" stroke="black" stroke-width="2" d="M429.75,-32C429.75,-32 479,-32 479,-32 485,-32 491,-38 491,-44 491,-44 491,-72 491,-72 491,-78 485,-84 479,-84 479,-84 429.75,-84 429.75,-84 423.75,-84 417.75,-78 417.75,-72 417.75,-72 417.75,-44 417.75,-44 417.75,-38 423.75,-32 429.75,-32"/>
<text text-anchor="middle" x="454.38" y="-71.45" font-family="Helvetica,sans-Serif" font-weight="bold" font-size="9.00">Layout</text>
</g>
<g id="clust12" class="cluster">
<title>cluster_src/widgets</title>
<path fill="#ffffff" stroke="black" stroke-width="2" d="M350.25,-144C350.25,-144 496.5,-144 496.5,-144 502.5,-144 508.5,-150 508.5,-156 508.5,-156 508.5,-252 508.5,-252 508.5,-258 502.5,-264 496.5,-264 496.5,-264 350.25,-264 350.25,-264 344.25,-264 338.25,-258 338.25,-252 338.25,-252 338.25,-156 338.25,-156 338.25,-150 344.25,-144 350.25,-144"/>
<text text-anchor="middle" x="423.38" y="-251.45" font-family="Helvetica,sans-Serif" font-weight="bold" font-size="9.00">widgets</text>
</g>
<g id="clust13" class="cluster">
<title>cluster_src/widgets/header</title>
<path fill="#ffffff" stroke="black" stroke-width="2" d="M358.25,-152C358.25,-152 488.5,-152 488.5,-152 494.5,-152 500.5,-158 500.5,-164 500.5,-164 500.5,-226 500.5,-226 500.5,-232 494.5,-238 488.5,-238 488.5,-238 358.25,-238 358.25,-238 352.25,-238 346.25,-232 346.25,-226 346.25,-226 346.25,-164 346.25,-164 346.25,-158 352.25,-152 358.25,-152"/>
<text text-anchor="middle" x="423.38" y="-225.45" font-family="Helvetica,sans-Serif" font-weight="bold" font-size="9.00">header</text>
</g>
<g id="clust14" class="cluster">
<title>cluster_src/widgets/header/ui</title>
<path fill="#ffffff" stroke="black" stroke-width="2" d="M428.25,-160C428.25,-160 480.5,-160 480.5,-160 486.5,-160 492.5,-166 492.5,-172 492.5,-172 492.5,-200 492.5,-200 492.5,-206 486.5,-212 480.5,-212 480.5,-212 428.25,-212 428.25,-212 422.25,-212 416.25,-206 416.25,-200 416.25,-200 416.25,-172 416.25,-172 416.25,-166 422.25,-160 428.25,-160"/>
<text text-anchor="middle" x="454.38" y="-199.45" font-family="Helvetica,sans-Serif" font-weight="bold" font-size="9.00">ui</text>
</g>
<!-- src/app/App.tsx -->
<g id="node1" class="node">
<title>src/app/App.tsx</title>
<g id="a_node1"><a xlink:href="src/app/App.tsx" xlink:title="App.tsx">
<path fill="#bbfeff" stroke="black" d="M139.08,-45.88C139.08,-45.88 96.92,-45.88 96.92,-45.88 93.96,-45.88 91,-42.92 91,-39.96 91,-39.96 91,-34.04 91,-34.04 91,-31.08 93.96,-28.12 96.92,-28.12 96.92,-28.12 139.08,-28.12 139.08,-28.12 142.04,-28.12 145,-31.08 145,-34.04 145,-34.04 145,-39.96 145,-39.96 145,-42.92 142.04,-45.88 139.08,-45.88"/>
<text text-anchor="start" x="103" y="-33.33" font-family="Helvetica,sans-Serif" font-size="9.00">App.tsx</text>
</a>
</g>
</g>
<!-- src/app/layouts/index.ts -->
<g id="node2" class="node">
<title>src/app/layouts/index.ts</title>
<g id="a_node2"><a xlink:href="src/app/layouts/index.ts" xlink:title="index.ts">
<path fill="#ddfeff" stroke="black" d="M217.08,-49.88C217.08,-49.88 174.92,-49.88 174.92,-49.88 171.96,-49.88 169,-46.92 169,-43.96 169,-43.96 169,-38.04 169,-38.04 169,-35.08 171.96,-32.12 174.92,-32.12 174.92,-32.12 217.08,-32.12 217.08,-32.12 220.04,-32.12 223,-35.08 223,-38.04 223,-38.04 223,-43.96 223,-43.96 223,-46.92 220.04,-49.88 217.08,-49.88"/>
<text text-anchor="start" x="180.25" y="-37.33" font-family="Helvetica,sans-Serif" font-size="9.00">index.ts</text>
</a>
</g>
</g>
<!-- src/app/App.tsx&#45;&gt;src/app/layouts/index.ts -->
<g id="edge1" class="edge">
<title>src/app/App.tsx&#45;&gt;src/app/layouts/index.ts</title>
<path fill="none" stroke="#000000" stroke-width="2" stroke-opacity="0.200000" d="M145.15,-38.38C149.88,-38.63 154.87,-38.89 159.8,-39.15"/>
<polygon fill="#000000" fill-opacity="0.200000" stroke="#000000" stroke-width="2" stroke-opacity="0.200000" points="159.41,-41.23 165.52,-39.45 159.63,-37.04 159.41,-41.23"/>
</g>
<!-- src/pages/404.tsx -->
<g id="node3" class="node">
<title>src/pages/404.tsx</title>
<g id="a_node3"><a xlink:href="src/pages/404.tsx" xlink:title="404.tsx">
<path fill="#bbfeff" stroke="black" d="M217.08,-323.88C217.08,-323.88 174.92,-323.88 174.92,-323.88 171.96,-323.88 169,-320.92 169,-317.96 169,-317.96 169,-312.04 169,-312.04 169,-309.08 171.96,-306.12 174.92,-306.12 174.92,-306.12 217.08,-306.12 217.08,-306.12 220.04,-306.12 223,-309.08 223,-312.04 223,-312.04 223,-317.96 223,-317.96 223,-320.92 220.04,-323.88 217.08,-323.88"/>
<text text-anchor="start" x="181.38" y="-311.32" font-family="Helvetica,sans-Serif" font-size="9.00">404.tsx</text>
</a>
</g>
</g>
<!-- src/app/App.tsx&#45;&gt;src/pages/404.tsx -->
<g id="edge2" class="edge">
<title>src/app/App.tsx&#45;&gt;src/pages/404.tsx</title>
<path fill="none" stroke="#000000" stroke-width="2" stroke-opacity="0.200000" d="M140.05,-46.37C142,-47.99 143.71,-49.85 145,-52 159.23,-75.74 136.46,-278.81 153,-301 155.11,-303.83 157.82,-306.1 160.83,-307.91"/>
<polygon fill="#000000" fill-opacity="0.200000" stroke="#000000" stroke-width="2" stroke-opacity="0.200000" points="159.74,-309.72 166.07,-310.29 161.48,-305.89 159.74,-309.72"/>
</g>
<!-- src/pages/about/index.ts -->
<g id="node4" class="node">
<title>src/pages/about/index.ts</title>
<g id="a_node4"><a xlink:href="src/pages/about/index.ts" xlink:title="index.ts">
<path fill="#ddfeff" stroke="black" d="M217.08,-147.88C217.08,-147.88 174.92,-147.88 174.92,-147.88 171.96,-147.88 169,-144.92 169,-141.96 169,-141.96 169,-136.04 169,-136.04 169,-133.08 171.96,-130.12 174.92,-130.12 174.92,-130.12 217.08,-130.12 217.08,-130.12 220.04,-130.12 223,-133.08 223,-136.04 223,-136.04 223,-141.96 223,-141.96 223,-144.92 220.04,-147.88 217.08,-147.88"/>
<text text-anchor="start" x="180.25" y="-135.32" font-family="Helvetica,sans-Serif" font-size="9.00">index.ts</text>
</a>
</g>
</g>
<!-- src/app/App.tsx&#45;&gt;src/pages/about/index.ts -->
<g id="edge3" class="edge">
<title>src/app/App.tsx&#45;&gt;src/pages/about/index.ts</title>
<path fill="none" stroke="#000000" stroke-width="2" stroke-opacity="0.200000" d="M139.02,-46.34C141.25,-47.99 143.32,-49.87 145,-52 152.75,-61.83 147.56,-67.73 153,-79 160.7,-94.97 172.48,-111.35 181.6,-122.95"/>
<polygon fill="#000000" fill-opacity="0.200000" stroke="#000000" stroke-width="2" stroke-opacity="0.200000" points="179.85,-124.12 185.25,-127.47 183.12,-121.48 179.85,-124.12"/>
</g>
<!-- src/pages/home/index.ts -->
<g id="node5" class="node">
<title>src/pages/home/index.ts</title>
<g id="a_node5"><a xlink:href="src/pages/home/index.ts" xlink:title="index.ts">
<path fill="#ddfeff" stroke="black" d="M217.08,-241.88C217.08,-241.88 174.92,-241.88 174.92,-241.88 171.96,-241.88 169,-238.92 169,-235.96 169,-235.96 169,-230.04 169,-230.04 169,-227.08 171.96,-224.12 174.92,-224.12 174.92,-224.12 217.08,-224.12 217.08,-224.12 220.04,-224.12 223,-227.08 223,-230.04 223,-230.04 223,-235.96 223,-235.96 223,-238.92 220.04,-241.88 217.08,-241.88"/>
<text text-anchor="start" x="180.25" y="-229.32" font-family="Helvetica,sans-Serif" font-size="9.00">index.ts</text>
</a>
</g>
</g>
<!-- src/app/App.tsx&#45;&gt;src/pages/home/index.ts -->
<g id="edge4" class="edge">
<title>src/app/App.tsx&#45;&gt;src/pages/home/index.ts</title>
<path fill="none" stroke="#000000" stroke-width="2" stroke-opacity="0.200000" d="M139.77,-46.19C141.82,-47.85 143.64,-49.78 145,-52 163.01,-81.41 135.44,-177.31 153,-207 155.81,-211.75 159.85,-215.75 164.34,-219.08"/>
<polygon fill="#000000" fill-opacity="0.200000" stroke="#000000" stroke-width="2" stroke-opacity="0.200000" points="162.91,-220.66 169.1,-222.14 165.19,-217.13 162.91,-220.66"/>
</g>
<!-- src/app/layouts/BaseLayout.tsx -->
<g id="node8" class="node">
<title>src/app/layouts/BaseLayout.tsx</title>
<g id="a_node8"><a xlink:href="src/app/layouts/BaseLayout.tsx" xlink:title="BaseLayout.tsx">
<path fill="#bbfeff" stroke="black" d="M308.33,-49.88C308.33,-49.88 241.92,-49.88 241.92,-49.88 238.96,-49.88 236,-46.92 236,-43.96 236,-43.96 236,-38.04 236,-38.04 236,-35.08 238.96,-32.12 241.92,-32.12 241.92,-32.12 308.33,-32.12 308.33,-32.12 311.29,-32.12 314.25,-35.08 314.25,-38.04 314.25,-38.04 314.25,-43.96 314.25,-43.96 314.25,-46.92 311.29,-49.88 308.33,-49.88"/>
<text text-anchor="start" x="244" y="-37.33" font-family="Helvetica,sans-Serif" font-size="9.00">BaseLayout.tsx</text>
</a>
</g>
</g>
<!-- src/app/layouts/index.ts&#45;&gt;src/app/layouts/BaseLayout.tsx -->
<g id="edge9" class="edge">
<title>src/app/layouts/index.ts&#45;&gt;src/app/layouts/BaseLayout.tsx</title>
<path fill="none" stroke="#000000" stroke-width="2" stroke-opacity="0.200000" d="M223.11,-41C224.87,-41 226.67,-41 228.49,-41"/>
<polygon fill="#000000" fill-opacity="0.200000" stroke="#000000" stroke-width="2" stroke-opacity="0.200000" points="234.58,-43.1 228.58,-41 234.58,-38.9 234.58,-43.1"/>
</g>
<!-- src/pages/about/ui/About.tsx -->
<g id="node11" class="node">
<title>src/pages/about/ui/About.tsx</title>
<g id="a_node11"><a xlink:href="src/pages/about/ui/About.tsx" xlink:title="About.tsx">
<path fill="#bbfeff" stroke="black" d="M296.21,-151.88C296.21,-151.88 254.04,-151.88 254.04,-151.88 251.08,-151.88 248.12,-148.92 248.12,-145.96 248.12,-145.96 248.12,-140.04 248.12,-140.04 248.12,-137.08 251.08,-134.12 254.04,-134.12 254.04,-134.12 296.21,-134.12 296.21,-134.12 299.17,-134.12 302.12,-137.08 302.12,-140.04 302.12,-140.04 302.12,-145.96 302.12,-145.96 302.12,-148.92 299.17,-151.88 296.21,-151.88"/>
<text text-anchor="start" x="256.38" y="-139.32" font-family="Helvetica,sans-Serif" font-size="9.00">About.tsx</text>
</a>
</g>
</g>
<!-- src/pages/about/index.ts&#45;&gt;src/pages/about/ui/About.tsx -->
<g id="edge10" class="edge">
<title>src/pages/about/index.ts&#45;&gt;src/pages/about/ui/About.tsx</title>
<path fill="none" stroke="#000000" stroke-width="2" stroke-opacity="0.200000" d="M223.11,-140.35C228.83,-140.65 234.95,-140.97 240.91,-141.28"/>
<polygon fill="#000000" fill-opacity="0.200000" stroke="#000000" stroke-width="2" stroke-opacity="0.200000" points="246.67,-143.68 240.79,-141.27 246.89,-139.48 246.67,-143.68"/>
</g>
<!-- src/pages/home/ui/Home.tsx -->
<g id="node12" class="node">
<title>src/pages/home/ui/Home.tsx</title>
<g id="a_node12"><a xlink:href="src/pages/home/ui/Home.tsx" xlink:title="Home.tsx">
<path fill="#bbfeff" stroke="black" d="M296.33,-245.88C296.33,-245.88 253.92,-245.88 253.92,-245.88 250.96,-245.88 248,-242.92 248,-239.96 248,-239.96 248,-234.04 248,-234.04 248,-231.08 250.96,-228.12 253.92,-228.12 253.92,-228.12 296.33,-228.12 296.33,-228.12 299.29,-228.12 302.25,-231.08 302.25,-234.04 302.25,-234.04 302.25,-239.96 302.25,-239.96 302.25,-242.92 299.29,-245.88 296.33,-245.88"/>
<text text-anchor="start" x="256" y="-233.32" font-family="Helvetica,sans-Serif" font-size="9.00">Home.tsx</text>
</a>
</g>
</g>
<!-- src/pages/home/index.ts&#45;&gt;src/pages/home/ui/Home.tsx -->
<g id="edge11" class="edge">
<title>src/pages/home/index.ts&#45;&gt;src/pages/home/ui/Home.tsx</title>
<path fill="none" stroke="#000000" stroke-width="2" stroke-opacity="0.200000" d="M223.11,-234.35C228.76,-234.65 234.82,-234.96 240.71,-235.27"/>
<polygon fill="#000000" fill-opacity="0.200000" stroke="#000000" stroke-width="2" stroke-opacity="0.200000" points="246.41,-237.67 240.52,-235.26 246.63,-233.47 246.41,-237.67"/>
</g>
<!-- src/app/entry.css -->
<g id="node6" class="node">
<title>src/app/entry.css</title>
<g id="a_node6"><a xlink:href="src/app/entry.css" xlink:title="entry.css">
<path fill="#ffffcc" stroke="black" d="M139.08,-75.88C139.08,-75.88 96.92,-75.88 96.92,-75.88 93.96,-75.88 91,-72.92 91,-69.96 91,-69.96 91,-64.04 91,-64.04 91,-61.08 93.96,-58.12 96.92,-58.12 96.92,-58.12 139.08,-58.12 139.08,-58.12 142.04,-58.12 145,-61.08 145,-64.04 145,-64.04 145,-69.96 145,-69.96 145,-72.92 142.04,-75.88 139.08,-75.88"/>
<text text-anchor="start" x="100" y="-63.33" font-family="Helvetica,sans-Serif" font-size="9.00">entry.css</text>
</a>
</g>
</g>
<!-- src/app/entry.tsx -->
<g id="node7" class="node">
<title>src/app/entry.tsx</title>
<g id="a_node7"><a xlink:href="src/app/entry.tsx" xlink:title="entry.tsx">
<path fill="#bbfeff" stroke="black" d="M72.08,-60.88C72.08,-60.88 29.92,-60.88 29.92,-60.88 26.96,-60.88 24,-57.92 24,-54.96 24,-54.96 24,-49.04 24,-49.04 24,-46.08 26.96,-43.12 29.92,-43.12 29.92,-43.12 72.08,-43.12 72.08,-43.12 75.04,-43.12 78,-46.08 78,-49.04 78,-49.04 78,-54.96 78,-54.96 78,-57.92 75.04,-60.88 72.08,-60.88"/>
<text text-anchor="start" x="34.12" y="-48.33" font-family="Helvetica,sans-Serif" font-size="9.00">entry.tsx</text>
</a>
</g>
</g>
<!-- src/app/entry.tsx&#45;&gt;src/app/App.tsx -->
<g id="edge5" class="edge">
<title>src/app/entry.tsx&#45;&gt;src/app/App.tsx</title>
<path fill="none" stroke="#000000" stroke-width="2" stroke-opacity="0.200000" d="M78.44,-45.9C79.71,-45.6 81,-45.31 82.29,-45.01"/>
<polygon fill="#000000" fill-opacity="0.200000" stroke="#000000" stroke-width="2" stroke-opacity="0.200000" points="82.47,-47.12 87.85,-43.73 81.53,-43.03 82.47,-47.12"/>
</g>
<!-- src/app/entry.tsx&#45;&gt;src/app/entry.css -->
<g id="edge6" class="edge">
<title>src/app/entry.tsx&#45;&gt;src/app/entry.css</title>
<path fill="none" stroke="#000000" stroke-width="2" stroke-opacity="0.200000" d="M78.44,-58.1C79.71,-58.4 81,-58.69 82.29,-58.99"/>
<polygon fill="#000000" fill-opacity="0.200000" stroke="#000000" stroke-width="2" stroke-opacity="0.200000" points="81.53,-60.97 87.85,-60.27 82.47,-56.88 81.53,-60.97"/>
</g>
<!-- src/shared/ui/index.ts -->
<g id="node9" class="node">
<title>src/shared/ui/index.ts</title>
<g id="a_node9"><a xlink:href="src/shared/ui/index.ts" xlink:title="index.ts">
<path fill="#ddfeff" stroke="black" d="M402.33,-53.88C402.33,-53.88 360.17,-53.88 360.17,-53.88 357.21,-53.88 354.25,-50.92 354.25,-47.96 354.25,-47.96 354.25,-42.04 354.25,-42.04 354.25,-39.08 357.21,-36.12 360.17,-36.12 360.17,-36.12 402.33,-36.12 402.33,-36.12 405.29,-36.12 408.25,-39.08 408.25,-42.04 408.25,-42.04 408.25,-47.96 408.25,-47.96 408.25,-50.92 405.29,-53.88 402.33,-53.88"/>
<text text-anchor="start" x="365.5" y="-41.33" font-family="Helvetica,sans-Serif" font-size="9.00">index.ts</text>
</a>
</g>
</g>
<!-- src/app/layouts/BaseLayout.tsx&#45;&gt;src/shared/ui/index.ts -->
<g id="edge7" class="edge">
<title>src/app/layouts/BaseLayout.tsx&#45;&gt;src/shared/ui/index.ts</title>
<path fill="none" stroke="#000000" stroke-width="2" stroke-opacity="0.200000" d="M314.6,-42.48C324.63,-42.86 335.37,-43.28 345.21,-43.65"/>
<polygon fill="#000000" fill-opacity="0.200000" stroke="#000000" stroke-width="2" stroke-opacity="0.200000" points="344.84,-45.74 350.91,-43.87 345,-41.54 344.84,-45.74"/>
</g>
<!-- src/widgets/header/index.ts -->
<g id="node10" class="node">
<title>src/widgets/header/index.ts</title>
<g id="a_node10"><a xlink:href="src/widgets/header/index.ts" xlink:title="index.ts">
<path fill="#ddfeff" stroke="black" d="M402.33,-181.88C402.33,-181.88 360.17,-181.88 360.17,-181.88 357.21,-181.88 354.25,-178.92 354.25,-175.96 354.25,-175.96 354.25,-170.04 354.25,-170.04 354.25,-167.08 357.21,-164.12 360.17,-164.12 360.17,-164.12 402.33,-164.12 402.33,-164.12 405.29,-164.12 408.25,-167.08 408.25,-170.04 408.25,-170.04 408.25,-175.96 408.25,-175.96 408.25,-178.92 405.29,-181.88 402.33,-181.88"/>
<text text-anchor="start" x="365.5" y="-169.32" font-family="Helvetica,sans-Serif" font-size="9.00">index.ts</text>
</a>
</g>
</g>
<!-- src/app/layouts/BaseLayout.tsx&#45;&gt;src/widgets/header/index.ts -->
<g id="edge8" class="edge">
<title>src/app/layouts/BaseLayout.tsx&#45;&gt;src/widgets/header/index.ts</title>
<path fill="none" stroke="#000000" stroke-width="2" stroke-opacity="0.200000" d="M283.28,-50.07C300.74,-72.21 345.71,-129.21 367.73,-157.12"/>
<polygon fill="#000000" fill-opacity="0.200000" stroke="#000000" stroke-width="2" stroke-opacity="0.200000" points="365.8,-158.08 371.17,-161.49 369.1,-155.48 365.8,-158.08"/>
</g>
<!-- src/shared/ui/Layout/Layout.tsx -->
<g id="node13" class="node">
<title>src/shared/ui/Layout/Layout.tsx</title>
<g id="a_node13"><a xlink:href="src/shared/ui/Layout/Layout.tsx" xlink:title="Layout.tsx">
<path fill="#bbfeff" stroke="black" d="M477.08,-57.88C477.08,-57.88 431.67,-57.88 431.67,-57.88 428.71,-57.88 425.75,-54.92 425.75,-51.96 425.75,-51.96 425.75,-46.04 425.75,-46.04 425.75,-43.08 428.71,-40.12 431.67,-40.12 431.67,-40.12 477.08,-40.12 477.08,-40.12 480.04,-40.12 483,-43.08 483,-46.04 483,-46.04 483,-51.96 483,-51.96 483,-54.92 480.04,-57.88 477.08,-57.88"/>
<text text-anchor="start" x="433.75" y="-45.33" font-family="Helvetica,sans-Serif" font-size="9.00">Layout.tsx</text>
</a>
</g>
</g>
<!-- src/shared/ui/index.ts&#45;&gt;src/shared/ui/Layout/Layout.tsx -->
<g id="edge12" class="edge">
<title>src/shared/ui/index.ts&#45;&gt;src/shared/ui/Layout/Layout.tsx</title>
<path fill="none" stroke="#000000" stroke-width="2" stroke-opacity="0.200000" d="M408.73,-46.49C411.93,-46.67 415.23,-46.85 418.53,-47.04"/>
<polygon fill="#000000" fill-opacity="0.200000" stroke="#000000" stroke-width="2" stroke-opacity="0.200000" points="424.56,-49.48 418.69,-47.05 424.8,-45.29 424.56,-49.48"/>
</g>
<!-- src/widgets/header/ui/Header.tsx -->
<g id="node14" class="node">
<title>src/widgets/header/ui/Header.tsx</title>
<g id="a_node14"><a xlink:href="src/widgets/header/ui/Header.tsx" xlink:title="Header.tsx">
<path fill="#bbfeff" stroke="black" d="M478.58,-185.88C478.58,-185.88 430.17,-185.88 430.17,-185.88 427.21,-185.88 424.25,-182.92 424.25,-179.96 424.25,-179.96 424.25,-174.04 424.25,-174.04 424.25,-171.08 427.21,-168.12 430.17,-168.12 430.17,-168.12 478.58,-168.12 478.58,-168.12 481.54,-168.12 484.5,-171.08 484.5,-174.04 484.5,-174.04 484.5,-179.96 484.5,-179.96 484.5,-182.92 481.54,-185.88 478.58,-185.88"/>
<text text-anchor="start" x="432.25" y="-173.32" font-family="Helvetica,sans-Serif" font-size="9.00">Header.tsx</text>
</a>
</g>
</g>
<!-- src/widgets/header/index.ts&#45;&gt;src/widgets/header/ui/Header.tsx -->
<g id="edge13" class="edge">
<title>src/widgets/header/index.ts&#45;&gt;src/widgets/header/ui/Header.tsx</title>
<path fill="none" stroke="#000000" stroke-width="2" stroke-opacity="0.200000" d="M408.73,-174.49C411.34,-174.64 414.01,-174.79 416.69,-174.94"/>
<polygon fill="#000000" fill-opacity="0.200000" stroke="#000000" stroke-width="2" stroke-opacity="0.200000" points="422.64,-177.37 416.77,-174.94 422.88,-173.18 422.64,-177.37"/>
</g>
</g>
</svg>
