<?xml version="1.0" encoding="UTF-8" standalone="no"?>
<!DOCTYPE svg PUBLIC "-//W3C//DTD SVG 1.1//EN"
 "http://www.w3.org/Graphics/SVG/1.1/DTD/svg11.dtd">
<!-- Generated by graphviz version 11.0.0 (20240428.1522)
 -->
<!-- Title: dependency&#45;cruiser output Pages: 1 -->
<svg width="636pt" height="306pt"
 viewBox="0.00 0.00 636.00 306.00" xmlns="http://www.w3.org/2000/svg" xmlns:xlink="http://www.w3.org/1999/xlink">
<g id="graph0" class="graph" transform="scale(1 1) rotate(0) translate(4 302)">
<title>dependency&#45;cruiser output</title>
<polygon fill="white" stroke="none" points="-4,4 -4,-302 632,-302 632,4 -4,4"/>
<g id="clust1" class="cluster">
<title>cluster_src</title>
<path fill="#ffffff" stroke="black" stroke-width="2" d="M20,-8C20,-8 608,-8 608,-8 614,-8 620,-14 620,-20 620,-20 620,-278 620,-278 620,-284 614,-290 608,-290 608,-290 20,-290 20,-290 14,-290 8,-284 8,-278 8,-278 8,-20 8,-20 8,-14 14,-8 20,-8"/>
<text text-anchor="middle" x="314" y="-277.45" font-family="Helvetica,sans-Serif" font-weight="bold" font-size="9.00">src</text>
</g>
<g id="clust2" class="cluster">
<title>cluster_src/app</title>
<path fill="#ffffff" stroke="black" stroke-width="2" d="M28,-47C28,-47 313.25,-47 313.25,-47 319.25,-47 325.25,-53 325.25,-59 325.25,-59 325.25,-121 325.25,-121 325.25,-127 319.25,-133 313.25,-133 313.25,-133 28,-133 28,-133 22,-133 16,-127 16,-121 16,-121 16,-59 16,-59 16,-53 22,-47 28,-47"/>
<text text-anchor="middle" x="170.62" y="-120.45" font-family="Helvetica,sans-Serif" font-weight="bold" font-size="9.00">app</text>
</g>
<g id="clust3" class="cluster">
<title>cluster_src/app/layouts</title>
<path fill="#ffffff" stroke="black" stroke-width="2" d="M165,-55C165,-55 305.25,-55 305.25,-55 311.25,-55 317.25,-61 317.25,-67 317.25,-67 317.25,-95 317.25,-95 317.25,-101 311.25,-107 305.25,-107 305.25,-107 165,-107 165,-107 159,-107 153,-101 153,-95 153,-95 153,-67 153,-67 153,-61 159,-55 165,-55"/>
<text text-anchor="middle" x="235.12" y="-94.45" font-family="Helvetica,sans-Serif" font-weight="bold" font-size="9.00">layouts</text>
</g>
<g id="clust4" class="cluster">
<title>cluster_src/pages</title>
<path fill="#ffffff" stroke="black" stroke-width="2" d="M165,-141C165,-141 211,-141 211,-141 217,-141 223,-147 223,-153 223,-153 223,-241 223,-241 223,-247 217,-253 211,-253 211,-253 165,-253 165,-253 159,-253 153,-247 153,-241 153,-241 153,-153 153,-153 153,-147 159,-141 165,-141"/>
<text text-anchor="middle" x="188" y="-240.45" font-family="Helvetica,sans-Serif" font-weight="bold" font-size="9.00">pages</text>
</g>
<g id="clust5" class="cluster">
<title>cluster_src/shared</title>
<path fill="#ffffff" stroke="black" stroke-width="2" d="M345.25,-16C345.25,-16 598.5,-16 598.5,-16 604.5,-16 610.5,-22 610.5,-28 610.5,-28 610.5,-124 610.5,-124 610.5,-130 604.5,-136 598.5,-136 598.5,-136 345.25,-136 345.25,-136 339.25,-136 333.25,-130 333.25,-124 333.25,-124 333.25,-28 333.25,-28 333.25,-22 339.25,-16 345.25,-16"/>
<text text-anchor="middle" x="471.88" y="-123.45" font-family="Helvetica,sans-Serif" font-weight="bold" font-size="9.00">shared</text>
</g>
<g id="clust6" class="cluster">
<title>cluster_src/shared/ui</title>
<path fill="#ffffff" stroke="black" stroke-width="2" d="M353.25,-24C353.25,-24 590.5,-24 590.5,-24 596.5,-24 602.5,-30 602.5,-36 602.5,-36 602.5,-98 602.5,-98 602.5,-104 596.5,-110 590.5,-110 590.5,-110 353.25,-110 353.25,-110 347.25,-110 341.25,-104 341.25,-98 341.25,-98 341.25,-36 341.25,-36 341.25,-30 347.25,-24 353.25,-24"/>
<text text-anchor="middle" x="471.88" y="-97.45" font-family="Helvetica,sans-Serif" font-weight="bold" font-size="9.00">ui</text>
</g>
<g id="clust7" class="cluster">
<title>cluster_src/shared/ui/Layout</title>
<path fill="#ffffff" stroke="black" stroke-width="2" d="M424.75,-32C424.75,-32 582.5,-32 582.5,-32 588.5,-32 594.5,-38 594.5,-44 594.5,-44 594.5,-72 594.5,-72 594.5,-78 588.5,-84 582.5,-84 582.5,-84 424.75,-84 424.75,-84 418.75,-84 412.75,-78 412.75,-72 412.75,-72 412.75,-44 412.75,-44 412.75,-38 418.75,-32 424.75,-32"/>
<text text-anchor="middle" x="503.62" y="-71.45" font-family="Helvetica,sans-Serif" font-weight="bold" font-size="9.00">Layout</text>
</g>
<g id="clust8" class="cluster">
<title>cluster_src/widgets</title>
<path fill="#ffffff" stroke="black" stroke-width="2" d="M345.25,-144C345.25,-144 600,-144 600,-144 606,-144 612,-150 612,-156 612,-156 612,-252 612,-252 612,-258 606,-264 600,-264 600,-264 345.25,-264 345.25,-264 339.25,-264 333.25,-258 333.25,-252 333.25,-252 333.25,-156 333.25,-156 333.25,-150 339.25,-144 345.25,-144"/>
<text text-anchor="middle" x="472.62" y="-251.45" font-family="Helvetica,sans-Serif" font-weight="bold" font-size="9.00">widgets</text>
</g>
<g id="clust9" class="cluster">
<title>cluster_src/widgets/header</title>
<path fill="#ffffff" stroke="black" stroke-width="2" d="M353.25,-152C353.25,-152 592,-152 592,-152 598,-152 604,-158 604,-164 604,-164 604,-226 604,-226 604,-232 598,-238 592,-238 592,-238 353.25,-238 353.25,-238 347.25,-238 341.25,-232 341.25,-226 341.25,-226 341.25,-164 341.25,-164 341.25,-158 347.25,-152 353.25,-152"/>
<text text-anchor="middle" x="472.62" y="-225.45" font-family="Helvetica,sans-Serif" font-weight="bold" font-size="9.00">header</text>
</g>
<g id="clust10" class="cluster">
<title>cluster_src/widgets/header/ui</title>
<path fill="#ffffff" stroke="black" stroke-width="2" d="M423.25,-160C423.25,-160 584,-160 584,-160 590,-160 596,-166 596,-172 596,-172 596,-200 596,-200 596,-206 590,-212 584,-212 584,-212 423.25,-212 423.25,-212 417.25,-212 411.25,-206 411.25,-200 411.25,-200 411.25,-172 411.25,-172 411.25,-166 417.25,-160 423.25,-160"/>
<text text-anchor="middle" x="503.62" y="-199.45" font-family="Helvetica,sans-Serif" font-weight="bold" font-size="9.00">ui</text>
</g>
<!-- src/app/App.tsx -->
<g id="node1" class="node">
<title>src/app/App.tsx</title>
<g id="a_node1"><a xlink:href="src/app/App.tsx" xlink:title="App.tsx">
<path fill="#bbfeff" stroke="black" d="M139.08,-76.88C139.08,-76.88 96.92,-76.88 96.92,-76.88 93.96,-76.88 91,-73.92 91,-70.96 91,-70.96 91,-65.04 91,-65.04 91,-62.08 93.96,-59.12 96.92,-59.12 96.92,-59.12 139.08,-59.12 139.08,-59.12 142.04,-59.12 145,-62.08 145,-65.04 145,-65.04 145,-70.96 145,-70.96 145,-73.92 142.04,-76.88 139.08,-76.88"/>
<text text-anchor="start" x="103" y="-64.33" font-family="Helvetica,sans-Serif" font-size="9.00">App.tsx</text>
</a>
</g>
</g>
<!-- src/app/layouts/index.ts -->
<g id="node2" class="node">
<title>src/app/layouts/index.ts</title>
<g id="a_node2"><a xlink:href="src/app/layouts/index.ts" xlink:title="index.ts">
<path fill="#ddfeff" stroke="black" d="M209.08,-80.88C209.08,-80.88 166.92,-80.88 166.92,-80.88 163.96,-80.88 161,-77.92 161,-74.96 161,-74.96 161,-69.04 161,-69.04 161,-66.08 163.96,-63.12 166.92,-63.12 166.92,-63.12 209.08,-63.12 209.08,-63.12 212.04,-63.12 215,-66.08 215,-69.04 215,-69.04 215,-74.96 215,-74.96 215,-77.92 212.04,-80.88 209.08,-80.88"/>
<text text-anchor="start" x="172.25" y="-68.33" font-family="Helvetica,sans-Serif" font-size="9.00">index.ts</text>
</a>
</g>
</g>
<!-- src/app/App.tsx&#45;&gt;src/app/layouts/index.ts -->
<g id="edge1" class="edge">
<title>src/app/App.tsx&#45;&gt;src/app/layouts/index.ts</title>
<path fill="none" stroke="#000000" stroke-width="2" stroke-opacity="0.200000" d="M145.49,-69.56C147.7,-69.69 149.97,-69.82 152.24,-69.96"/>
<polygon fill="#000000" fill-opacity="0.200000" stroke="#000000" stroke-width="2" stroke-opacity="0.200000" points="151.79,-72.03 157.9,-70.29 152.03,-67.84 151.79,-72.03"/>
</g>
<!-- src/pages/404.tsx -->
<g id="node3" class="node">
<title>src/pages/404.tsx</title>
<g id="a_node3"><a xlink:href="src/pages/404.tsx" xlink:title="404.tsx">
<path fill="#bbfeff" stroke="black" d="M209.08,-166.88C209.08,-166.88 166.92,-166.88 166.92,-166.88 163.96,-166.88 161,-163.92 161,-160.96 161,-160.96 161,-155.04 161,-155.04 161,-152.08 163.96,-149.12 166.92,-149.12 166.92,-149.12 209.08,-149.12 209.08,-149.12 212.04,-149.12 215,-152.08 215,-155.04 215,-155.04 215,-160.96 215,-160.96 215,-163.92 212.04,-166.88 209.08,-166.88"/>
<text text-anchor="start" x="173.38" y="-154.32" font-family="Helvetica,sans-Serif" font-size="9.00">404.tsx</text>
</a>
</g>
</g>
<!-- src/app/App.tsx&#45;&gt;src/pages/404.tsx -->
<g id="edge2" class="edge">
<title>src/app/App.tsx&#45;&gt;src/pages/404.tsx</title>
<path fill="none" stroke="#000000" stroke-width="2" stroke-opacity="0.200000" d="M139.02,-77.34C141.25,-78.99 143.32,-80.87 145,-83 152.75,-92.83 147.53,-98.74 153,-110 158.51,-121.34 166.61,-132.9 173.52,-141.84"/>
<polygon fill="#000000" fill-opacity="0.200000" stroke="#000000" stroke-width="2" stroke-opacity="0.200000" points="171.7,-142.92 177.08,-146.3 174.98,-140.3 171.7,-142.92"/>
</g>
<!-- src/pages/about.tsx -->
<g id="node4" class="node">
<title>src/pages/about.tsx</title>
<g id="a_node4"><a xlink:href="src/pages/about.tsx" xlink:title="about.tsx">
<path fill="#bbfeff" stroke="black" d="M209.08,-196.88C209.08,-196.88 166.92,-196.88 166.92,-196.88 163.96,-196.88 161,-193.92 161,-190.96 161,-190.96 161,-185.04 161,-185.04 161,-182.08 163.96,-179.12 166.92,-179.12 166.92,-179.12 209.08,-179.12 209.08,-179.12 212.04,-179.12 215,-182.08 215,-185.04 215,-185.04 215,-190.96 215,-190.96 215,-193.92 212.04,-196.88 209.08,-196.88"/>
<text text-anchor="start" x="169.62" y="-184.32" font-family="Helvetica,sans-Serif" font-size="9.00">about.tsx</text>
</a>
</g>
</g>
<!-- src/app/App.tsx&#45;&gt;src/pages/about.tsx -->
<g id="edge3" class="edge">
<title>src/app/App.tsx&#45;&gt;src/pages/about.tsx</title>
<path fill="none" stroke="#000000" stroke-width="2" stroke-opacity="0.200000" d="M139.69,-77.24C141.75,-78.89 143.6,-80.8 145,-83 155.8,-99.93 141.3,-156.68 153,-173 153.32,-173.44 153.65,-173.87 154,-174.29"/>
<polygon fill="#000000" fill-opacity="0.200000" stroke="#000000" stroke-width="2" stroke-opacity="0.200000" points="152.46,-175.74 158.39,-178.04 155.19,-172.55 152.46,-175.74"/>
</g>
<!-- src/pages/home.tsx -->
<g id="node5" class="node">
<title>src/pages/home.tsx</title>
<g id="a_node5"><a xlink:href="src/pages/home.tsx" xlink:title="home.tsx">
<path fill="#bbfeff" stroke="black" d="M209.08,-226.88C209.08,-226.88 166.92,-226.88 166.92,-226.88 163.96,-226.88 161,-223.92 161,-220.96 161,-220.96 161,-215.04 161,-215.04 161,-212.08 163.96,-209.12 166.92,-209.12 166.92,-209.12 209.08,-209.12 209.08,-209.12 212.04,-209.12 215,-212.08 215,-215.04 215,-215.04 215,-220.96 215,-220.96 215,-223.92 212.04,-226.88 209.08,-226.88"/>
<text text-anchor="start" x="169.62" y="-214.32" font-family="Helvetica,sans-Serif" font-size="9.00">home.tsx</text>
</a>
</g>
</g>
<!-- src/app/App.tsx&#45;&gt;src/pages/home.tsx -->
<g id="edge4" class="edge">
<title>src/app/App.tsx&#45;&gt;src/pages/home.tsx</title>
<path fill="none" stroke="#000000" stroke-width="2" stroke-opacity="0.200000" d="M139.74,-77.21C141.79,-78.87 143.62,-80.79 145,-83 159.13,-105.69 137.67,-181.11 153,-203 153.31,-203.45 153.64,-203.88 153.98,-204.3"/>
<polygon fill="#000000" fill-opacity="0.200000" stroke="#000000" stroke-width="2" stroke-opacity="0.200000" points="152.43,-205.73 158.34,-208.07 155.18,-202.56 152.43,-205.73"/>
</g>
<!-- src/app/layouts/BaseLayout.tsx -->
<g id="node8" class="node">
<title>src/app/layouts/BaseLayout.tsx</title>
<g id="a_node8"><a xlink:href="src/app/layouts/BaseLayout.tsx" xlink:title="BaseLayout.tsx">
<path fill="#bbfeff" stroke="black" d="M303.33,-80.88C303.33,-80.88 236.92,-80.88 236.92,-80.88 233.96,-80.88 231,-77.92 231,-74.96 231,-74.96 231,-69.04 231,-69.04 231,-66.08 233.96,-63.12 236.92,-63.12 236.92,-63.12 303.33,-63.12 303.33,-63.12 306.29,-63.12 309.25,-66.08 309.25,-69.04 309.25,-69.04 309.25,-74.96 309.25,-74.96 309.25,-77.92 306.29,-80.88 303.33,-80.88"/>
<text text-anchor="start" x="239" y="-68.33" font-family="Helvetica,sans-Serif" font-size="9.00">BaseLayout.tsx</text>
</a>
</g>
</g>
<!-- src/app/layouts/index.ts&#45;&gt;src/app/layouts/BaseLayout.tsx -->
<g id="edge9" class="edge">
<title>src/app/layouts/index.ts&#45;&gt;src/app/layouts/BaseLayout.tsx</title>
<path fill="none" stroke="#000000" stroke-width="2" stroke-opacity="0.200000" d="M215.24,-72C218.01,-72 220.88,-72 223.79,-72"/>
<polygon fill="#000000" fill-opacity="0.200000" stroke="#000000" stroke-width="2" stroke-opacity="0.200000" points="229.62,-74.1 223.62,-72 229.62,-69.9 229.62,-74.1"/>
</g>
<!-- src/app/entry.css -->
<g id="node6" class="node">
<title>src/app/entry.css</title>
<g id="a_node6"><a xlink:href="src/app/entry.css" xlink:title="entry.css">
<path fill="#ffffcc" stroke="black" d="M139.08,-106.88C139.08,-106.88 96.92,-106.88 96.92,-106.88 93.96,-106.88 91,-103.92 91,-100.96 91,-100.96 91,-95.04 91,-95.04 91,-92.08 93.96,-89.12 96.92,-89.12 96.92,-89.12 139.08,-89.12 139.08,-89.12 142.04,-89.12 145,-92.08 145,-95.04 145,-95.04 145,-100.96 145,-100.96 145,-103.92 142.04,-106.88 139.08,-106.88"/>
<text text-anchor="start" x="100" y="-94.33" font-family="Helvetica,sans-Serif" font-size="9.00">entry.css</text>
</a>
</g>
</g>
<!-- src/app/entry.tsx -->
<g id="node7" class="node">
<title>src/app/entry.tsx</title>
<g id="a_node7"><a xlink:href="src/app/entry.tsx" xlink:title="entry.tsx">
<path fill="#bbfeff" stroke="black" d="M72.08,-91.88C72.08,-91.88 29.92,-91.88 29.92,-91.88 26.96,-91.88 24,-88.92 24,-85.96 24,-85.96 24,-80.04 24,-80.04 24,-77.08 26.96,-74.12 29.92,-74.12 29.92,-74.12 72.08,-74.12 72.08,-74.12 75.04,-74.12 78,-77.08 78,-80.04 78,-80.04 78,-85.96 78,-85.96 78,-88.92 75.04,-91.88 72.08,-91.88"/>
<text text-anchor="start" x="34.12" y="-79.33" font-family="Helvetica,sans-Serif" font-size="9.00">entry.tsx</text>
</a>
</g>
</g>
<!-- src/app/entry.tsx&#45;&gt;src/app/App.tsx -->
<g id="edge5" class="edge">
<title>src/app/entry.tsx&#45;&gt;src/app/App.tsx</title>
<path fill="none" stroke="#000000" stroke-width="2" stroke-opacity="0.200000" d="M78.44,-76.9C79.71,-76.6 81,-76.31 82.29,-76.01"/>
<polygon fill="#000000" fill-opacity="0.200000" stroke="#000000" stroke-width="2" stroke-opacity="0.200000" points="82.47,-78.12 87.85,-74.73 81.53,-74.03 82.47,-78.12"/>
</g>
<!-- src/app/entry.tsx&#45;&gt;src/app/entry.css -->
<g id="edge6" class="edge">
<title>src/app/entry.tsx&#45;&gt;src/app/entry.css</title>
<path fill="none" stroke="#000000" stroke-width="2" stroke-opacity="0.200000" d="M78.44,-89.1C79.71,-89.4 81,-89.69 82.29,-89.99"/>
<polygon fill="#000000" fill-opacity="0.200000" stroke="#000000" stroke-width="2" stroke-opacity="0.200000" points="81.53,-91.97 87.85,-91.27 82.47,-87.88 81.53,-91.97"/>
</g>
<!-- src/shared/ui/index.ts -->
<g id="node9" class="node">
<title>src/shared/ui/index.ts</title>
<g id="a_node9"><a xlink:href="src/shared/ui/index.ts" xlink:title="index.ts">
<path fill="#ddfeff" stroke="black" d="M397.33,-70.88C397.33,-70.88 355.17,-70.88 355.17,-70.88 352.21,-70.88 349.25,-67.92 349.25,-64.96 349.25,-64.96 349.25,-59.04 349.25,-59.04 349.25,-56.08 352.21,-53.12 355.17,-53.12 355.17,-53.12 397.33,-53.12 397.33,-53.12 400.29,-53.12 403.25,-56.08 403.25,-59.04 403.25,-59.04 403.25,-64.96 403.25,-64.96 403.25,-67.92 400.29,-70.88 397.33,-70.88"/>
<text text-anchor="start" x="360.5" y="-58.33" font-family="Helvetica,sans-Serif" font-size="9.00">index.ts</text>
</a>
</g>
</g>
<!-- src/app/layouts/BaseLayout.tsx&#45;&gt;src/shared/ui/index.ts -->
<g id="edge7" class="edge">
<title>src/app/layouts/BaseLayout.tsx&#45;&gt;src/shared/ui/index.ts</title>
<path fill="none" stroke="#000000" stroke-width="2" stroke-opacity="0.200000" d="M309.6,-68.3C319.63,-67.34 330.37,-66.31 340.21,-65.37"/>
<polygon fill="#000000" fill-opacity="0.200000" stroke="#000000" stroke-width="2" stroke-opacity="0.200000" points="340.15,-67.48 345.92,-64.82 339.75,-63.3 340.15,-67.48"/>
</g>
<!-- src/widgets/header/index.ts -->
<g id="node10" class="node">
<title>src/widgets/header/index.ts</title>
<g id="a_node10"><a xlink:href="src/widgets/header/index.ts" xlink:title="index.ts">
<path fill="#ddfeff" stroke="black" d="M397.33,-181.88C397.33,-181.88 355.17,-181.88 355.17,-181.88 352.21,-181.88 349.25,-178.92 349.25,-175.96 349.25,-175.96 349.25,-170.04 349.25,-170.04 349.25,-167.08 352.21,-164.12 355.17,-164.12 355.17,-164.12 397.33,-164.12 397.33,-164.12 400.29,-164.12 403.25,-167.08 403.25,-170.04 403.25,-170.04 403.25,-175.96 403.25,-175.96 403.25,-178.92 400.29,-181.88 397.33,-181.88"/>
<text text-anchor="start" x="360.5" y="-169.32" font-family="Helvetica,sans-Serif" font-size="9.00">index.ts</text>
</a>
</g>
</g>
<!-- src/app/layouts/BaseLayout.tsx&#45;&gt;src/widgets/header/index.ts -->
<g id="edge8" class="edge">
<title>src/app/layouts/BaseLayout.tsx&#45;&gt;src/widgets/header/index.ts</title>
<path fill="none" stroke="#000000" stroke-width="2" stroke-opacity="0.200000" d="M280.73,-81.32C298.71,-98.76 337.58,-136.46 359.46,-157.69"/>
<polygon fill="#000000" fill-opacity="0.200000" stroke="#000000" stroke-width="2" stroke-opacity="0.200000" points="357.72,-158.92 363.49,-161.59 360.65,-155.91 357.72,-158.92"/>
</g>
<!-- src/shared/ui/Layout/Layout.tsx -->
<g id="node12" class="node">
<title>src/shared/ui/Layout/Layout.tsx</title>
<g id="a_node12"><a xlink:href="src/shared/ui/Layout/Layout.tsx" xlink:title="Layout.tsx">
<path fill="#bbfeff" stroke="black" d="M472.08,-57.88C472.08,-57.88 426.67,-57.88 426.67,-57.88 423.71,-57.88 420.75,-54.92 420.75,-51.96 420.75,-51.96 420.75,-46.04 420.75,-46.04 420.75,-43.08 423.71,-40.12 426.67,-40.12 426.67,-40.12 472.08,-40.12 472.08,-40.12 475.04,-40.12 478,-43.08 478,-46.04 478,-46.04 478,-51.96 478,-51.96 478,-54.92 475.04,-57.88 472.08,-57.88"/>
<text text-anchor="start" x="428.75" y="-45.33" font-family="Helvetica,sans-Serif" font-size="9.00">Layout.tsx</text>
</a>
</g>
</g>
<!-- src/shared/ui/index.ts&#45;&gt;src/shared/ui/Layout/Layout.tsx -->
<g id="edge11" class="edge">
<title>src/shared/ui/index.ts&#45;&gt;src/shared/ui/Layout/Layout.tsx</title>
<path fill="none" stroke="#000000" stroke-width="2" stroke-opacity="0.200000" d="M403.73,-57.16C407.02,-56.56 410.41,-55.94 413.79,-55.32"/>
<polygon fill="#000000" fill-opacity="0.200000" stroke="#000000" stroke-width="2" stroke-opacity="0.200000" points="420.07,-56.31 413.79,-55.32 419.32,-52.18 420.07,-56.31"/>
</g>
<!-- src/widgets/header/ui/Header.tsx -->
<g id="node13" class="node">
<title>src/widgets/header/ui/Header.tsx</title>
<g id="a_node13"><a xlink:href="src/widgets/header/ui/Header.tsx" xlink:title="Header.tsx">
<path fill="#bbfeff" stroke="black" d="M473.58,-185.88C473.58,-185.88 425.17,-185.88 425.17,-185.88 422.21,-185.88 419.25,-182.92 419.25,-179.96 419.25,-179.96 419.25,-174.04 419.25,-174.04 419.25,-171.08 422.21,-168.12 425.17,-168.12 425.17,-168.12 473.58,-168.12 473.58,-168.12 476.54,-168.12 479.5,-171.08 479.5,-174.04 479.5,-174.04 479.5,-179.96 479.5,-179.96 479.5,-182.92 476.54,-185.88 473.58,-185.88"/>
<text text-anchor="start" x="427.25" y="-173.32" font-family="Helvetica,sans-Serif" font-size="9.00">Header.tsx</text>
</a>
</g>
</g>
<!-- src/widgets/header/index.ts&#45;&gt;src/widgets/header/ui/Header.tsx -->
<g id="edge12" class="edge">
<title>src/widgets/header/index.ts&#45;&gt;src/widgets/header/ui/Header.tsx</title>
<path fill="none" stroke="#000000" stroke-width="2" stroke-opacity="0.200000" d="M403.73,-174.49C406.34,-174.64 409.01,-174.79 411.69,-174.94"/>
<polygon fill="#000000" fill-opacity="0.200000" stroke="#000000" stroke-width="2" stroke-opacity="0.200000" points="417.64,-177.37 411.77,-174.94 417.88,-173.18 417.64,-177.37"/>
</g>
<!-- src/shared/ui/Layout/Layout.module.css -->
<g id="node11" class="node">
<title>src/shared/ui/Layout/Layout.module.css</title>
<g id="a_node11"><a xlink:href="src/shared/ui/Layout/Layout.module.css" xlink:title="Layout.module.css">
<path fill="#ffffcc" stroke="black" d="M580.58,-57.88C580.58,-57.88 499.92,-57.88 499.92,-57.88 496.96,-57.88 494,-54.92 494,-51.96 494,-51.96 494,-46.04 494,-46.04 494,-43.08 496.96,-40.12 499.92,-40.12 499.92,-40.12 580.58,-40.12 580.58,-40.12 583.54,-40.12 586.5,-43.08 586.5,-46.04 586.5,-46.04 586.5,-51.96 586.5,-51.96 586.5,-54.92 583.54,-57.88 580.58,-57.88"/>
<text text-anchor="start" x="502" y="-45.33" font-family="Helvetica,sans-Serif" font-size="9.00">Layout.module.css</text>
</a>
</g>
</g>
<!-- src/shared/ui/Layout/Layout.tsx&#45;&gt;src/shared/ui/Layout/Layout.module.css -->
<g id="edge10" class="edge">
<title>src/shared/ui/Layout/Layout.tsx&#45;&gt;src/shared/ui/Layout/Layout.module.css</title>
<path fill="none" stroke="#000000" stroke-width="2" stroke-opacity="0.200000" d="M478.5,-49C480.63,-49 482.83,-49 485.05,-49"/>
<polygon fill="#000000" fill-opacity="0.200000" stroke="#000000" stroke-width="2" stroke-opacity="0.200000" points="484.74,-51.1 490.74,-49 484.74,-46.9 484.74,-51.1"/>
</g>
<!-- src/widgets/header/ui/Header.module.css -->
<g id="node14" class="node">
<title>src/widgets/header/ui/Header.module.css</title>
<g id="a_node14"><a xlink:href="src/widgets/header/ui/Header.module.css" xlink:title="Header.module.css">
<path fill="#ffffcc" stroke="black" d="M582.08,-185.88C582.08,-185.88 498.42,-185.88 498.42,-185.88 495.46,-185.88 492.5,-182.92 492.5,-179.96 492.5,-179.96 492.5,-174.04 492.5,-174.04 492.5,-171.08 495.46,-168.12 498.42,-168.12 498.42,-168.12 582.08,-168.12 582.08,-168.12 585.04,-168.12 588,-171.08 588,-174.04 588,-174.04 588,-179.96 588,-179.96 588,-182.92 585.04,-185.88 582.08,-185.88"/>
<text text-anchor="start" x="500.5" y="-173.32" font-family="Helvetica,sans-Serif" font-size="9.00">Header.module.css</text>
</a>
</g>
</g>
<!-- src/widgets/header/ui/Header.tsx&#45;&gt;src/widgets/header/ui/Header.module.css -->
<g id="edge13" class="edge">
<title>src/widgets/header/ui/Header.tsx&#45;&gt;src/widgets/header/ui/Header.module.css</title>
<path fill="none" stroke="#000000" stroke-width="2" stroke-opacity="0.200000" d="M479.97,-177C481.08,-177 482.2,-177 483.33,-177"/>
<polygon fill="#000000" fill-opacity="0.200000" stroke="#000000" stroke-width="2" stroke-opacity="0.200000" points="483.14,-179.1 489.14,-177 483.14,-174.9 483.14,-179.1"/>
</g>
</g>
</svg>
